<svg viewBox="0 0 502 216" style="background-color:#ffffff00" xmlns="http://www.w3.org/2000/svg" width="502" height="216"><path d="M60.528 197.197c-2.347-1.89-3.014-5.427-2.573-7.806.5-2.66 2.504-4.06 4.583-2.39.917.74 1.334 1.466 1.79 2.568l.484-.734.35.283-1.005 4.102-.494-.4c.26-2.25.027-3.963-1.21-4.958-1.165-.936-2.227.23-2.734 2.934-.48 2.565-.036 4.783 1.16 5.748 1.27 1.026 2.21.8 2.78-1.22l.562.46c-.576 2.334-2.187 2.636-3.698 1.42zm10.46-4.063c-1.21-.548-2.494.133-3.145 3.364-.683 3.407.41 4.698 1.427 5.16 1.483.682 2.503-.62 2.99-3.035.61-3.035-.02-4.912-1.273-5.49zm-2 9.23c-2.826-1.294-3.674-4.576-3.225-6.807.483-2.4 2.56-4.473 5.258-3.238 3.25 1.49 3.778 4.982 3.37 6.99-.52 2.59-2.56 4.35-5.4 3.05zm15.784 1.376c-.373-.134-.69-.11-.84.6l-.783 3.497-.588-.15-.422-1.363c-.514.745-1.526 1.074-2.897.587-2.613-.92-3.883-3.69-3.295-6.5.556-2.68 2.88-4.63 5.573-3.68 1.217.43 1.9 1.136 2.32 1.91l.63-.87.447.127-1.005 4.068-.566-.152c.206-1.93-.145-3.64-1.796-4.223-.817-.287-2.677-.083-3.437 3.57-.586 2.827.31 4.556 1.67 5.034 1.08.377 1.564-.07 1.88-.702l.367-1.532c.145-.705-.12-.94-.494-1.073l-.88-.306.13-.624 4.666 1.358-.13.626-.548-.195zm11.744-2.628c-.4-.066-.702.013-.76.734l-1.193 8.743-1.108-.2-4.19-8.31-.946 5.79c-.1.684.19 1.006.593 1.07l.92.227-.1.65-4-.918.105-.648.783.172c.407.067.636-.05.768-.772l1.164-7.065c.106-.692-.165-.893-.626-.974l-.79-.17.115-.618 3.06.612 3.878 7.696.606-5.447c.06-.73-.234-.91-.636-.98l-.912-.16.098-.634 4.055.696-.09.635-.79-.14zm6.584.502c-1.334-.097-2.593 1.064-2.857 4.517-.285 3.66 1.032 4.53 2.155 4.62 1.638.125 2.543-1.553 2.74-4.136.253-3.26-.65-4.89-2.038-4.995zm-.908 9.94c-3.126-.244-4.434-3.192-4.25-5.583.2-2.56 2.11-5.402 5.093-5.18 3.59.275 4.59 3.56 4.426 5.717-.21 2.772-2.123 5.285-5.264 5.05zm11.45.066c-1.506.058-2.25-.475-2.792-1.228l-.575 1.138-.45.015.045-4.402.594-.023c.246 2.066 1 3.798 3.09 3.716.833-.035 1.597-.6 1.608-1.487.032-3.03-5.46-.87-5.414-5.48.013-.97.85-2.89 3.175-2.98 1.284-.05 1.998.392 2.558 1.023l.466-1.144.44-.02-.046 4.17-.623.024c-.16-2.157-.925-3.343-2.63-3.274-1.255.05-1.687.958-1.695 1.61-.025 2.49 5.558.95 5.518 5-.015 1.69-1.205 3.257-3.264 3.34zm10.636-1.054c-3.106.47-4.843-1.898-5-4.37-.176-2.77 1.56-5.957 4.26-6.3 1.212-.15 1.934 0 2.727.527l.326-1.087.46-.078.28 4.447-.64.117c-.32-2.195-1.31-3.414-2.93-3.13-1.52.267-2.36 2.267-2.18 5.08.167 2.664 1.25 4.17 2.81 3.89 1.657-.297 2.618-1.36 2.697-3.636l.74-.134c.004 2.713-1.22 4.33-3.545 4.674zm9.072-11.746c-.337.098-.546.293-.506.854l.198 3.085.273-.08c1.51-.434 1.695-.55 1.74-2.98l.553-.164.375 5.646-.555.164c-.358-2.32-.483-2.328-2.06-1.874l-.272.08.23 3.53c.035.585.286.577.595.5a25.7 25.7 0 0 0 1.98-.565c1.494-.426 1.803-1.15 1.875-3.908l.585-.165.405 3.93c-3.295 1.075-5.783 1.76-9.07 2.59l-.045-.66.887-.23c.377-.104.67-.334.623-1.07l-.48-7.226c-.047-.72-.353-.766-.73-.66l-.893.254-.045-.647c3.203-.86 6.257-1.73 8.47-2.413l.403 3.827-.582.17c-.42-2.64-1.216-2.83-2.443-2.467-.607.17-1.157.374-1.507.47zm11.03-4.046l-.716.324c-.305.143-.382.296-.34.64l.434 3.3.995-.45c1.544-.705 1.917-2.034 1.813-2.82-.21-1.606-1.358-1.37-2.186-.994zm-3.456 11.275l-.085-.647.91-.347c.355-.164.552-.447.463-1.157l-.875-6.865c-.093-.698-.39-.698-.744-.542l-.864.345-.08-.63 5.89-2.68c1.536-.7 2.866-.13 3.055 1.325.133 1.027-.434 2.42-1.596 3.128 1.084.245 1.445.79 1.717 2.895.08.62.39.657.633.52.235-.13.403-.38.353-.788l-.356-1.96.65-.29.41 2.045c.098.753-.287 1.68-1.606 2.275-1.02.47-2.02.29-2.18-.963-.28-2.125-.72-2.72-1.89-2.353l-.884.4.444 3.538c.077.574.3.59.59.46l1.157-.473.085.642c-1.633.76-3.49 1.5-5.204 2.115zm16.403-20.13l.95 3.394-.48.367c-.616-2.414-1.355-2.226-2.356-1.433-.52.405-.832.665-1.28 1.033-.28.21-.435.47-.35 1.006l.634 2.89.318-.243c1.09-.842 1.243-1.07.877-3.36l.454-.348 1.194 5.197-.453.35c-.537-2.113-.64-2.083-1.95-1.088l-.314.24.664 3.34c.09.56.283.447.555.28.414-.26 1.382-1.03 1.81-1.367 1.003-.77 1.215-1.678.84-4.29l.477-.367.953 3.59c-1.94 1.852-5.01 4.03-7.55 5.693l-.1-.627.767-.5c.41-.316.518-.55.398-1.3l-1.348-6.665c-.108-.68-.413-.765-.727-.53l-.8.55-.162-.59c1.94-1.34 4.824-3.52 6.98-5.23zm-145.41-37.615l-.422-.534c-.197-.25-.303-.23-.442.064l-1.446 2.713.695.843c1.008 1.274 1.788.763 2.11.105.66-1.364.044-2.51-.495-3.19zm-1.745 10.576c-.667-.845-1.025-2.11-.51-3.174.87-1.794.905-2.74.222-3.82l-.576-.73-1.534 2.76c-.234.482-.114.73.08.972l.742.94-.26.54-3.384-4.276.26-.544.552.698c.23.294.46.43.756-.17l3.065-5.654c.287-.597.153-.934-.08-1.228l-.55-.693.257-.534 3.794 4.8c.997 1.266 1.32 3.183.724 4.414-.418.87-1.278.926-2.16.36.367 1.408.266 2.2-.594 3.983-.252.518-.176.81-.02 1.013.162.196.346.2.515-.148l.83-1.704.53.675-.87 1.813c-.31.635-.926.792-1.784-.29zm1.745 1.81l.298-.562.675.557c.285.24.562.323.895-.304l3.264-6.135c.32-.616.16-.915-.13-1.15l-.674-.564.292-.547 6.52 5.394-1.76 3.306-.44-.365c1.04-2.455.68-3.35-.253-4.12l-1.14-.943c-.254-.215-.478-.24-.73.24l-1.458 2.728.205.173c1.145.946 1.313 1.012 2.54-.88l.418.352-2.547 4.798-.42-.35c.914-2.142.844-2.26-.35-3.244l-.206-.168-1.57 2.955c-.265.5-.117.712.12.91l1.49 1.23c.92.766 1.69.622 3.056-1.457l.437.37-1.788 3.367-6.754-5.586zm16.483.37l-.663-.36c-.28-.156-.414-.1-.563.214l-1.423 3.032.93.505c1.426.79 2.372.044 2.71-.674.69-1.476-.22-2.292-.986-2.715zm-1.07 10.24c-.943-.52-1.538-1.54-.996-2.69.912-1.947.916-2.812-.08-3.547l-.81-.446-1.493 3.175c-.24.52-.06.706.21.854l1.05.582-.27.587-4.796-2.646.276-.59.78.428c.33.184.64.224.946-.436l3.003-6.397c.3-.645.094-.908-.236-1.087l-.777-.426.268-.577 5.443 3.004c1.417.78 2.04 2.404 1.414 3.74-.44.94-1.534 1.305-2.723 1.114.622 1.147.583 1.898-.326 3.833-.26.557-.136.795.09.922.223.12.46.052.64-.324l.867-1.843.757.416-.92 1.96c-.327.69-1.094 1.06-2.31.386zm13.973-4.88c-.438-.166-.72-.03-1.105.503l-5.66 7.362-.913-.346.17-9.437c-.017-.73-.098-.948-.447-1.083l-.667-.25.21-.62 4.784 1.805-.202.62-.713-.267c-.35-.135-.83-.14-.817.603l-.24 6.29 3.713-4.977c.332-.474.213-.836-.274-1.02l-.59-.22.204-.62 3.23 1.217-.2.62-.476-.18zm5.675 11.503l.197-.643.77.157c.568.094.75-.05.906-.66l1.79-5.934-5.18 6.704-.93-.24-.22-8.033-2.105 5.865c-.22.702.047.893.41.99l.778.193-.194.638-3.83-.98.195-.64.857.226c.363.09.684.046.905-.66l2.415-6.876c.214-.69-.044-.892-.41-.987l-.845-.216.192-.622 3.82.977.047 7.366 4.814-6.228 3.7.677-.192.622-.863-.14c-.376-.09-.7-.04-.913.65L51 177.07c-.22.714.03.897.407.992l.844.176-.194.64-5.076-.953zm123.63.203c-2.944.643-5.07-1.685-5.698-4.1-.7-2.697.506-5.772 3.11-6.336 1.15-.25 1.842-.04 2.73.45l.116-1.07.44-.097 1.13 4.34-.615.133c-.732-2.133-1.95-3.294-3.504-2.956-1.452.317-1.913 2.3-1.2 5.042.674 2.602 2.035 4.038 3.532 3.71 1.586-.346 2.34-1.42 1.987-3.648l.71-.156c.518 2.65-.515 4.21-2.733 4.69zm5.572-9.176l-.003 3.468 1.973-.643-1.97-2.825zm2.468 6.776l-.192-.635.812-.252c.365-.118.756-.4.33-1.005l-.992-1.41-2.437.792v1.734c0 .59.31.8.82.626l.614-.2.192.637-3.52 1.15-.194-.636.638-.207c.465-.15.625-.42.633-1.108l.088-9.326.97-.322 5.357 7.562c.405.592.612.698.99.573l.823-.264.197.63-5.133 1.667zm9.554-14.12c-.438.19-.587.497-.59 1.19l-.01 9.64-.907.4-5.466-7.228c-.427-.553-.616-.66-.96-.506l-.668.29-.19-.62 4.772-2.1.19.62-.714.312c-.35.154-.727.498-.294 1.06l3.51 4.735-.052-6.266c-.003-.607-.302-.796-.788-.584l-.586.264-.19-.623 3.22-1.42.194.62-.475.21zm7.144 6.874c-1.245.748-2.027.582-2.703.128l-.147 1.34-.374.223-1.25-4.19.49-.293c.813 1.84 1.952 3.137 3.682 2.097.687-.42 1.165-1.31.913-2.155-.856-2.88-4.836 1.7-6.145-2.69-.275-.92-.135-3.12 1.794-4.278 1.067-.642 1.794-.552 2.445-.21l.06-1.3.358-.218 1.186 3.97-.513.307c-.77-1.967-1.753-2.74-3.167-1.89a2.025 2.025 0 0 0-.95 2.31c.703 2.373 4.94-1.666 6.09 2.188.48 1.61-.06 3.637-1.764 4.666zm3.944-11.387l.264 3.67 1.604-1.314-1.87-2.36zm2.6 6.374l-.215-.607.655-.54c.3-.24.604-.664.197-1.166l-.94-1.17-1.973 1.614.13 1.835c.056.618.328.74.742.4l.498-.41.214.605-2.856 2.344-.212-.61.52-.424c.37-.305.486-.643.437-1.37l-.653-9.887.782-.64 5.07 6.28c.396.494.572.537.883.28l.662-.544.212.607-4.16 3.41zm6.987-6.54c-.878 1.15-1.52 1.205-2.113.92l.068 1.45-.264.34L205 155.61l.346-.45c.897 1.694 1.978 2.714 3.19 1.125.487-.64.736-1.706.42-2.517-1.08-2.772-3.57 3.183-5.218-1.035-.34-.883-.54-3.226.817-5.002.747-.98 1.338-1.09 1.9-.93l-.14-1.37.253-.334 1.486 3.815-.362.47c-.878-1.84-1.763-2.357-2.757-1.054-.733.95-.66 2.09-.426 2.688.884 2.28 3.66-3.18 5.1.527.603 1.545.464 3.82-.737 5.39z" fill="#31327f"/><path d="M108.872 196.506a78.138 78.138 0 0 1-31.28-6.516c1.424-2.517 2.474-5.143 3.27-7.904 8.854 5.53 18.32 10.24 28.064 14.373 9.757-4.14 19.243-8.87 28.113-14.41a42.26 42.26 0 0 0 3.432 7.88c-6.916 3.012-17.973 6.572-31.604 6.572zm106.722-49.927c-1.76-1.876-4.967-6.11-6.707-13.458-.37-2.352-2.123-4.563-6.142-4.563-4.836 0-9.04 2.75-11.364 5.32-1.9 2.102-2.87 4.402-2.68 6.32.06.533.25.996.556 1.377l-.008.007 6.858 8.216c-10.685 8.495-23.833 12.478-35.93 14.258 19.63-19.26 32.658-45.707 32.658-83.52l-.004-70.1C172.335 5.238 139.455 0 108.925 0 78.39 0 45.51 5.238 25.02 10.44l-.003 70.102c0 37.603 12.883 63.963 32.334 83.195-12.01-1.645-25.04-5.456-35.702-13.933l6.857-8.216-.01-.008a2.59 2.59 0 0 0 .55-1.377c.2-1.918-.777-4.218-2.678-6.32-2.325-2.57-6.528-5.32-11.364-5.32-4.02 0-5.772 2.21-6.14 4.563-1.744 7.347-4.952 11.582-6.71 13.453-3.925 4.17-1.67 8.33.367 11.093 5.802 7.88 20.345 21.712 52.653 26.202-.884 2.738-1.957 5.192-3.03 7.53-1.21 2.62-.217 4.98 3.423 8.143C64.58 207.39 83.32 216 108.87 216c25.555 0 44.293-8.61 53.31-16.448 3.64-3.164 4.634-5.524 3.423-8.142-1.072-2.336-2.146-4.79-3.03-7.53 32.308-4.49 47.303-17.752 53-26.436 1.885-2.874 3.943-6.693.02-10.863z" fill="#31327f"/><path d="M61.85 172.3c-2.17 0-2.822.695-2.822 1.944 0 5.39 10.455 12.257 16.822 15.057a40.21 40.21 0 0 0 3.52-8.16 143.985 143.985 0 0 1-10.98-7.73c-2.4-.615-4.712-1.105-6.54-1.105zm-44.196-34.007c-.797 1.275-2.41 3.866-2.896 4.64 1.19 1.595 3.494 4.006 5.697 5.883l5.077-6.08c-2.55-.028-5.826-1.62-7.878-4.443z" fill="#fff"/><path d="M17.673 135.337c2.05 3.557 5.366 6.116 8.46 5.48 1.07-.22 1.133-.87 1.154-1.076.152-1.48-.462-3.042-2.07-4.823-2.638-2.915-6.343-4.703-9.907-4.703-3.605 0-4.67 2.047-4.67 4.016 0 1.285.71 3.977 3.12 7.377.934-1.49 3.913-6.266 3.913-6.266z" fill="#fff"/><path d="M9.39 136.906c-1.89 5.63-4 9.01-5.57 10.675-2.45 2.61-2.57 5.38.22 9.17 5.67 7.705 19.73 20.98 51.64 25.356a38.783 38.783 0 0 0 1.42-7.942h.003c.024-2.406 1.83-3.434 4.338-3.434 1.19 0 2.676.223 4.29.556a121.9 121.9 0 0 1-6.164-5.41C29.14 161.92 13.652 147.606 9.39 136.91zm132.88 52.206c6.366-2.8 16.346-9.453 16.346-14.835 0-1.255-.652-1.95-2.822-1.95-1.776 0-3.99.464-6.294 1.044-3.528 2.75-7.2 5.33-10.985 7.75.98 2.79 2.282 5.412 3.755 7.996zm49.948-46.376l5.072 6.08c2.206-1.877 4.512-4.288 5.7-5.884l-2.895-4.64c-2.053 2.824-5.328 4.416-7.877 4.444z" fill="#fff"/><path d="M190.24 140.047c.025.215.09.855 1.16 1.077 3.098.63 6.627-2.23 8.677-5.787 0 0 2.982 4.776 3.906 6.266 2.42-3.4 3.108-6.296 3.108-7.587 0-1.967-.924-3.75-4.53-3.75-3.56 0-7.39 1.732-10.03 4.647-1.602 1.78-2.434 3.652-2.285 5.134z" fill="#fff"/><path d="M214.148 147.97c-1.57-1.662-3.898-5.434-5.787-11.064-4.253 10.683-19.71 24.975-50.062 28.958a124.977 124.977 0 0 1-6.148 5.386c1.564-.314 3.01-.525 4.16-.525 2.508 0 4.314 1.028 4.337 3.435.242 3.05.778 5.754 1.476 8.22 31.915-4.374 46.447-17.752 51.54-25.287 2.638-3.9 2.94-6.516.488-9.124z" fill="#fff"/><path d="M159.533 177.856c-5.108 8.673-26.56 20.47-50.66 20.47-24.097 0-45.548-11.797-50.657-20.47-.916 5.676-2.43 10.347-4.312 14.432-.582 1.27-.885 2.92 3.04 6.325 8.8 7.655 26.803 15.607 51.928 15.607 25.13 0 43.136-7.896 51.942-15.55 3.92-3.406 3.623-5.056 3.037-6.327-1.88-4.085-3.4-8.81-4.313-14.487z" fill="#fff"/><path d="M108.926 191.002C65.5 172.888 28.49 141.988 28.49 79.056V13.504c16.548-4.336 52.53-10.43 80.436-10.43 27.894 0 63.877 6.094 80.427 10.43v65.552c0 62.932-37.008 93.832-80.427 111.946z" fill="#00adef"/><path d="M60.528 197.197c-2.347-1.89-3.014-5.427-2.573-7.806.5-2.66 2.504-4.06 4.583-2.39.917.74 1.334 1.466 1.79 2.568l.484-.734.35.283-1.005 4.102-.494-.4c.26-2.25.027-3.963-1.21-4.958-1.165-.936-2.227.23-2.734 2.934-.48 2.565-.036 4.783 1.16 5.748 1.27 1.026 2.21.8 2.78-1.22l.562.46c-.576 2.334-2.187 2.636-3.698 1.42zm10.46-4.063c-1.21-.548-2.494.133-3.145 3.364-.683 3.407.41 4.698 1.427 5.16 1.483.682 2.503-.62 2.99-3.035.61-3.035-.02-4.912-1.273-5.49zm-2 9.23c-2.826-1.294-3.674-4.576-3.225-6.807.483-2.4 2.56-4.473 5.258-3.238 3.25 1.49 3.778 4.982 3.37 6.99-.52 2.59-2.56 4.35-5.4 3.05zm15.784 1.376c-.373-.134-.69-.11-.84.6l-.783 3.497-.588-.15-.422-1.363c-.514.745-1.526 1.074-2.897.587-2.613-.92-3.883-3.69-3.295-6.5.556-2.68 2.88-4.63 5.573-3.68 1.217.43 1.9 1.136 2.32 1.91l.63-.87.447.127-1.005 4.068-.566-.152c.206-1.93-.145-3.64-1.796-4.223-.817-.287-2.677-.083-3.437 3.57-.586 2.827.31 4.556 1.67 5.034 1.08.377 1.564-.07 1.88-.702l.367-1.532c.145-.705-.12-.94-.494-1.073l-.88-.306.13-.624 4.666 1.358-.13.626-.548-.195zm11.744-2.628c-.4-.066-.702.013-.76.734l-1.193 8.743-1.108-.2-4.19-8.31-.946 5.79c-.1.684.19 1.006.593 1.07l.92.227-.1.65-4-.918.105-.648.783.172c.407.067.636-.05.768-.772l1.164-7.065c.106-.692-.165-.893-.626-.974l-.79-.17.115-.618 3.06.612 3.878 7.696.606-5.447c.06-.73-.234-.91-.636-.98l-.912-.16.098-.634 4.055.696-.09.635-.79-.14zm6.584.502c-1.334-.097-2.593 1.064-2.857 4.517-.285 3.66 1.032 4.53 2.155 4.62 1.638.125 2.543-1.553 2.74-4.136.253-3.26-.65-4.89-2.038-4.995zm-.908 9.94c-3.126-.244-4.434-3.192-4.25-5.583.2-2.56 2.11-5.402 5.093-5.18 3.59.275 4.59 3.56 4.426 5.717-.21 2.772-2.123 5.285-5.264 5.05zm11.45.066c-1.506.058-2.25-.475-2.792-1.228l-.575 1.138-.45.015.045-4.402.594-.023c.246 2.066 1 3.798 3.09 3.716.833-.035 1.597-.6 1.608-1.487.032-3.03-5.46-.87-5.414-5.48.013-.97.85-2.89 3.175-2.98 1.284-.05 1.998.392 2.558 1.023l.466-1.144.44-.02-.046 4.17-.623.024c-.16-2.157-.925-3.343-2.63-3.274-1.255.05-1.687.958-1.695 1.61-.025 2.49 5.558.95 5.518 5-.015 1.69-1.205 3.257-3.264 3.34zm10.636-1.054c-3.106.47-4.843-1.898-5-4.37-.176-2.77 1.56-5.957 4.26-6.3 1.212-.15 1.934 0 2.727.527l.326-1.087.46-.078.28 4.447-.64.117c-.32-2.195-1.31-3.414-2.93-3.13-1.52.267-2.36 2.267-2.18 5.08.167 2.664 1.25 4.17 2.81 3.89 1.657-.297 2.618-1.36 2.697-3.636l.74-.134c.004 2.713-1.22 4.33-3.545 4.674zm9.072-11.746c-.337.098-.546.293-.506.854l.198 3.085.273-.08c1.51-.434 1.695-.55 1.74-2.98l.553-.164.375 5.646-.555.164c-.358-2.32-.483-2.328-2.06-1.874l-.272.08.23 3.53c.035.585.286.577.595.5a25.7 25.7 0 0 0 1.98-.565c1.494-.426 1.803-1.15 1.875-3.908l.585-.165.405 3.93c-3.295 1.075-5.783 1.76-9.07 2.59l-.045-.66.887-.23c.377-.104.67-.334.623-1.07l-.48-7.226c-.047-.72-.353-.766-.73-.66l-.893.254-.045-.647c3.203-.86 6.257-1.73 8.47-2.413l.403 3.827-.582.17c-.42-2.64-1.216-2.83-2.443-2.467-.607.17-1.157.374-1.507.47zm11.03-4.046l-.716.324c-.305.143-.382.296-.34.64l.434 3.3.995-.45c1.544-.705 1.917-2.034 1.813-2.82-.21-1.606-1.358-1.37-2.186-.994zm-3.456 11.275l-.085-.647.91-.347c.355-.164.552-.447.463-1.157l-.875-6.865c-.093-.698-.39-.698-.744-.542l-.864.345-.08-.63 5.89-2.68c1.536-.7 2.866-.13 3.055 1.325.133 1.027-.434 2.42-1.596 3.128 1.084.245 1.445.79 1.717 2.895.08.62.39.657.633.52.235-.13.403-.38.353-.788l-.356-1.96.65-.29.41 2.045c.098.753-.287 1.68-1.606 2.275-1.02.47-2.02.29-2.18-.963-.28-2.125-.72-2.72-1.89-2.353l-.884.4.444 3.538c.077.574.3.59.59.46l1.157-.473.085.642c-1.633.76-3.49 1.5-5.204 2.115zm16.403-20.13l.95 3.394-.48.367c-.616-2.414-1.355-2.226-2.356-1.433-.52.405-.832.665-1.28 1.033-.28.21-.435.47-.35 1.006l.634 2.89.318-.243c1.09-.842 1.243-1.07.877-3.36l.454-.348 1.194 5.197-.453.35c-.537-2.113-.64-2.083-1.95-1.088l-.314.24.664 3.34c.09.56.283.447.555.28.414-.26 1.382-1.03 1.81-1.367 1.003-.77 1.215-1.678.84-4.29l.477-.367.953 3.59c-1.94 1.852-5.01 4.03-7.55 5.693l-.1-.627.767-.5c.41-.316.518-.55.398-1.3l-1.348-6.665c-.108-.68-.413-.765-.727-.53l-.8.55-.162-.59c1.94-1.34 4.824-3.52 6.98-5.23zm-145.41-37.615l-.422-.534c-.197-.25-.303-.23-.442.064l-1.446 2.713.695.843c1.008 1.274 1.788.763 2.11.105.66-1.364.044-2.51-.495-3.19zm-1.745 10.576c-.667-.845-1.025-2.11-.51-3.174.87-1.794.905-2.74.222-3.82l-.576-.73-1.534 2.76c-.234.482-.114.73.08.972l.742.94-.26.54-3.384-4.276.26-.544.552.698c.23.294.46.43.756-.17l3.065-5.654c.287-.597.153-.934-.08-1.228l-.55-.693.257-.534 3.794 4.8c.997 1.266 1.32 3.183.724 4.414-.418.87-1.278.926-2.16.36.367 1.408.266 2.2-.594 3.983-.252.518-.176.81-.02 1.013.162.196.346.2.515-.148l.83-1.704.53.675-.87 1.813c-.31.635-.926.792-1.784-.29zm1.745 1.81l.298-.562.675.557c.285.24.562.323.895-.304l3.264-6.135c.32-.616.16-.915-.13-1.15l-.674-.564.292-.547 6.52 5.394-1.76 3.306-.44-.365c1.04-2.455.68-3.35-.253-4.12l-1.14-.943c-.254-.215-.478-.24-.73.24l-1.458 2.728.205.173c1.145.946 1.313 1.012 2.54-.88l.418.352-2.547 4.798-.42-.35c.914-2.142.844-2.26-.35-3.244l-.206-.168-1.57 2.955c-.265.5-.117.712.12.91l1.49 1.23c.92.766 1.69.622 3.056-1.457l.437.37-1.788 3.367-6.754-5.586zm16.483.37l-.663-.36c-.28-.156-.414-.1-.563.214l-1.423 3.032.93.505c1.426.79 2.372.044 2.71-.674.69-1.476-.22-2.292-.986-2.715zm-1.07 10.24c-.943-.52-1.538-1.54-.996-2.69.912-1.947.916-2.812-.08-3.547l-.81-.446-1.493 3.175c-.24.52-.06.706.21.854l1.05.582-.27.587-4.796-2.646.276-.59.78.428c.33.184.64.224.946-.436l3.003-6.397c.3-.645.094-.908-.236-1.087l-.777-.426.268-.577 5.443 3.004c1.417.78 2.04 2.404 1.414 3.74-.44.94-1.534 1.305-2.723 1.114.622 1.147.583 1.898-.326 3.833-.26.557-.136.795.09.922.223.12.46.052.64-.324l.867-1.843.757.416-.92 1.96c-.327.69-1.094 1.06-2.31.386zm13.973-4.88c-.438-.166-.72-.03-1.105.503l-5.66 7.362-.913-.346.17-9.437c-.017-.73-.098-.948-.447-1.083l-.667-.25.21-.62 4.784 1.805-.202.62-.713-.267c-.35-.135-.83-.14-.817.603l-.24 6.29 3.713-4.977c.332-.474.213-.836-.274-1.02l-.59-.22.204-.62 3.23 1.217-.2.62-.476-.18zm5.675 11.503l.197-.643.77.157c.568.094.75-.05.906-.66l1.79-5.934-5.18 6.704-.93-.24-.22-8.033-2.105 5.865c-.22.702.047.893.41.99l.778.193-.194.638-3.83-.98.195-.64.857.226c.363.09.684.046.905-.66l2.415-6.876c.214-.69-.044-.892-.41-.987l-.845-.216.192-.622 3.82.977.047 7.366 4.814-6.228 3.7.677-.192.622-.863-.14c-.376-.09-.7-.04-.913.65L51 177.07c-.22.714.03.897.407.992l.844.176-.194.64-5.076-.953zm123.63.203c-2.944.643-5.07-1.685-5.698-4.1-.7-2.697.506-5.772 3.11-6.336 1.15-.25 1.842-.04 2.73.45l.116-1.07.44-.097 1.13 4.34-.615.133c-.732-2.133-1.95-3.294-3.504-2.956-1.452.317-1.913 2.3-1.2 5.042.674 2.602 2.035 4.038 3.532 3.71 1.586-.346 2.34-1.42 1.987-3.648l.71-.156c.518 2.65-.515 4.21-2.733 4.69zm5.572-9.176l-.003 3.468 1.973-.643-1.97-2.825zm2.468 6.776l-.192-.635.812-.252c.365-.118.756-.4.33-1.005l-.992-1.41-2.437.792v1.734c0 .59.31.8.82.626l.614-.2.192.637-3.52 1.15-.194-.636.638-.207c.465-.15.625-.42.633-1.108l.088-9.326.97-.322 5.357 7.562c.405.592.612.698.99.573l.823-.264.197.63-5.133 1.667zm9.554-14.12c-.438.19-.587.497-.59 1.19l-.01 9.64-.907.4-5.466-7.228c-.427-.553-.616-.66-.96-.506l-.668.29-.19-.62 4.772-2.1.19.62-.714.312c-.35.154-.727.498-.294 1.06l3.51 4.735-.052-6.266c-.003-.607-.302-.796-.788-.584l-.586.264-.19-.623 3.22-1.42.194.62-.475.21zm7.144 6.874c-1.245.748-2.027.582-2.703.128l-.147 1.34-.374.223-1.25-4.19.49-.293c.813 1.84 1.952 3.137 3.682 2.097.687-.42 1.165-1.31.913-2.155-.856-2.88-4.836 1.7-6.145-2.69-.275-.92-.135-3.12 1.794-4.278 1.067-.642 1.794-.552 2.445-.21l.06-1.3.358-.218 1.186 3.97-.513.307c-.77-1.967-1.753-2.74-3.167-1.89a2.025 2.025 0 0 0-.95 2.31c.703 2.373 4.94-1.666 6.09 2.188.48 1.61-.06 3.637-1.764 4.666zm3.944-11.387l.264 3.67 1.604-1.314-1.87-2.36zm2.6 6.374l-.215-.607.655-.54c.3-.24.604-.664.197-1.166l-.94-1.17-1.973 1.614.13 1.835c.056.618.328.74.742.4l.498-.41.214.605-2.856 2.344-.212-.61.52-.424c.37-.305.486-.643.437-1.37l-.653-9.887.782-.64 5.07 6.28c.396.494.572.537.883.28l.662-.544.212.607-4.16 3.41zm6.987-6.54c-.878 1.15-1.52 1.205-2.113.92l.068 1.45-.264.34L205 155.61l.346-.45c.897 1.694 1.978 2.714 3.19 1.125.487-.64.736-1.706.42-2.517-1.08-2.772-3.57 3.183-5.218-1.035-.34-.883-.54-3.226.817-5.002.747-.98 1.338-1.09 1.9-.93l-.14-1.37.253-.334 1.486 3.815-.362.47c-.878-1.84-1.763-2.357-2.757-1.054-.733.95-.66 2.09-.426 2.688.884 2.28 3.66-3.18 5.1.527.603 1.545.464 3.82-.737 5.39zM51.29 41.025l1.2-1.665 110.48 69.873c1.215.77 2.604 1.69 4.01 2.65l.56-.76c.522-.533.948-.987 1.24-1.255.548.2 2.525 1.152 3.627 1.843 2.563 1.627 4.887 5.1 4.464 7.43-2.14 1.246-6.45.52-9.014-1.1-1.1-.7-2.776-2.06-3.18-2.46.15-.334.797-1.49 1.166-2.11L67.24 51.11c-2.907.065-5.902.426-8.89-1.432-1.15-.71-5.078-3.218-7.344-4.758a57.223 57.223 0 0 0 3.25-2.02l-2.967-1.876z" fill="#31327f"/><path d="M51.745 40.447l3.123 1.976c-1.223.83-2.717 1.766-3.218 2.046 2.266 1.542 5.99 3.92 7.137 4.63 3 1.862 5.996 1.5 8.91 1.433l94.413 59.713c3.19 2.02 7.89 4.712 11 6.242l-.092.127c-2.678-.4-5.162-1.74-7.223-3.042a12.59 12.59 0 0 0-.825 1.523c.403.4 2.08 1.765 3.177 2.462 2.572 1.616 6.728 2.243 8.87 1.004.427-2.33-1.748-5.71-4.318-7.335-1.1-.694-3.08-1.643-3.62-1.843-.286.255-1.19 1.282-1.61 1.83L68.864 48.86c-1.023-2.553-1.787-5.277-4.74-7.18-1.135-.727-4.878-3.076-7.252-4.474-.093.544-.454 2.176-.816 3.55l-3.12-1.972-1.194 1.663z" fill="#fff"/><path d="M57.81 42.247c.145-1.013.177-2.675.177-3.077 0-.268.363-.04.394.108.17.696.18 2.32.3 3.51l-.866-.54zm2.818 1.773a33.845 33.845 0 0 0-.295-3.445c-.047-.344.383-.04.448.117.43 1 .66 3.243.73 3.89l-.88-.562zm5.707 3.616c-.172-1.018-.433-2.324-.632-2.834-.26-.675.214-.304.348-.05.51.92.94 2.402 1.118 3.406l-.83-.522zm-2.815-1.78c-.023-1.04-.364-2.74-.537-3.606-.07-.342.407-.02.48.136.433.975.898 3.404.975 4.047l-.917-.578zm-6.542-2.46c-.944.507-2.578 1.158-2.973 1.306-.266.1.096.334.256.306.75-.117 2.36-.72 3.587-1.06l-.865-.55v-.002zm2.814 1.784a38.21 38.21 0 0 1-3.517 1.04c-.358.087.105.35.28.344 1.15-.008 3.453-.648 4.12-.827l-.883-.556zm5.715 3.614c-1.077.228-2.46.49-3.042.51-.763.026-.222.3.08.32 1.098.096 2.725-.084 3.786-.31l-.82-.52zm-2.817-1.78c-1.04.366-2.847.707-3.77.88-.362.068.132.36.313.366 1.13.01 3.705-.49 4.37-.667l-.914-.578zM44.96 50.79l1.2-1.66L156.637 119c1.21.77 2.606 1.69 4.012 2.655l.55-.76c.523-.534.95-.988 1.246-1.26.546.2 2.52 1.15 3.62 1.848 2.57 1.623 4.89 5.096 4.47 7.424-2.145 1.243-6.45.526-9.02-1.1-1.1-.695-2.78-2.06-3.18-2.46.148-.34.797-1.492 1.164-2.11L60.91 60.88c-2.91.06-5.904.422-8.896-1.437-1.146-.712-5.073-3.214-7.34-4.755.5-.287 2.035-1.19 3.252-2.02l-2.965-1.88z" fill="#31327f"/><path d="M45.41 50.215l3.123 1.975c-1.217.83-2.713 1.768-3.22 2.05a285.112 285.112 0 0 0 7.143 4.63c3 1.86 5.994 1.497 8.908 1.434l94.414 59.713c3.192 2.022 7.89 4.71 10.996 6.24l-.09.126c-2.674-.393-5.157-1.737-7.22-3.037a14.19 14.19 0 0 0-.828 1.52c.402.404 2.082 1.764 3.18 2.458 2.57 1.623 6.728 2.25 8.87 1.008.422-2.33-1.752-5.708-4.32-7.336-1.1-.693-3.07-1.647-3.62-1.843-.278.26-1.188 1.282-1.606 1.835L62.538 58.624c-1.027-2.548-1.79-5.274-4.744-7.176a275.11 275.11 0 0 0-7.255-4.473c-.09.542-.45 2.176-.82 3.546l-3.116-1.97-1.198 1.67z" fill="#fff"/><path d="M51.477 52.007c.147-1.01.176-2.667.176-3.068 0-.27.36-.047.397.103.165.694.172 2.32.294 3.508l-.867-.547zm2.816 1.78a35.153 35.153 0 0 0-.288-3.444c-.05-.346.38-.04.445.116.422 1 .65 3.24.728 3.884l-.885-.56zm5.71 3.618c-.172-1.023-.433-2.325-.63-2.834-.26-.67.21-.3.346-.05.5.92.93 2.407 1.11 3.41l-.83-.52zm-2.81-1.782c-.03-1.04-.368-2.738-.54-3.61-.074-.336.405-.016.474.14.433.976.905 3.406.98 4.048l-.915-.573zm-6.545-2.458c-.946.505-2.58 1.153-2.975 1.306-.265.1.097.33.257.307.748-.114 2.36-.716 3.578-1.058l-.86-.55zm2.812 1.783c-1.04.37-2.56.815-3.516 1.04-.36.088.1.345.282.345 1.145-.004 3.452-.65 4.12-.827l-.885-.558zm5.712 3.614c-1.072.227-2.46.49-3.038.51-.768.026-.22.295.08.32 1.093.092 2.727-.084 3.786-.31l-.828-.52zm-2.812-1.784c-1.043.37-2.85.712-3.77.883-.362.07.13.367.313.37 1.13.014 3.702-.49 4.37-.666l-.914-.58zm-17.746 3.864l1.197-1.667 110.487 69.874c1.212.77 2.608 1.69 4.016 2.65l.55-.76c.525-.538.956-.99 1.25-1.255.546.195 2.52 1.147 3.62 1.84 2.565 1.624 4.89 5.1 4.467 7.426-2.144 1.244-6.455.527-9.02-1.097-1.1-.697-2.78-2.054-3.18-2.46.15-.338.8-1.49 1.165-2.11l-98.6-62.364c-2.905.065-5.9.427-8.89-1.43-1.15-.71-5.076-3.216-7.343-4.76a53.98 53.98 0 0 0 3.25-2.02l-2.967-1.87z" fill="#31327f"/><path d="M39.067 60.063l3.125 1.974c-1.223.83-2.718 1.767-3.22 2.052 2.27 1.54 5.993 3.914 7.137 4.623 2.994 1.865 5.993 1.5 8.91 1.434l94.41 59.714c3.19 2.02 7.893 4.72 11 6.243l-.09.128c-2.674-.39-5.164-1.736-7.226-3.042-.38.625-.67 1.17-.822 1.522.4.404 2.076 1.76 3.178 2.462 2.57 1.62 6.726 2.244 8.87 1.005.423-2.328-1.752-5.708-4.32-7.33-1.096-.7-3.074-1.65-3.62-1.848-.28.257-1.187 1.285-1.61 1.833L56.19 68.47c-1.02-2.54-1.79-5.27-4.74-7.17-1.13-.73-4.878-3.08-7.252-4.476-.093.543-.456 2.18-.817 3.547l-3.11-1.964-1.2 1.66z" fill="#fff"/><path d="M45.133 61.86c.146-1.01.177-2.674.177-3.075 0-.27.36-.04.398.11.166.698.17 2.325.29 3.508l-.864-.542zm2.817 1.778a34.41 34.41 0 0 0-.29-3.447c-.05-.34.378-.04.447.12.422 1 .65 3.24.724 3.89l-.88-.56zm5.713 3.616c-.177-1.02-.44-2.32-.636-2.836-.257-.674.214-.3.35-.052.502.92.936 2.406 1.108 3.413l-.822-.53zm-2.818-1.784c-.024-1.04-.36-2.737-.54-3.606-.067-.34.406-.02.48.138.433.976.9 3.405.976 4.045l-.91-.578zM44.3 63.014c-.942.505-2.575 1.155-2.973 1.31-.262.1.102.328.256.3.748-.118 2.365-.718 3.582-1.06l-.864-.55zm2.814 1.786a40.035 40.035 0 0 1-3.517 1.04c-.357.085.105.344.287.342 1.146-.005 3.452-.648 4.115-.824l-.89-.56zm5.716 3.61c-1.077.232-2.46.488-3.04.514-.767.023-.22.295.077.322 1.097.084 2.726-.092 3.788-.314l-.825-.523zm-2.817-1.78c-1.037.37-2.846.707-3.767.883-.36.07.134.362.31.362 1.133.01 3.706-.49 4.373-.666l-.92-.58zm-17.87 3.765l1.197-1.66 110.48 69.872a133.09 133.09 0 0 1 4.01 2.65l.557-.756c.523-.533.956-.99 1.247-1.254.55.204 2.52 1.15 3.62 1.843 2.57 1.626 4.89 5.095 4.47 7.426-2.145 1.244-6.452.524-9.02-1.1-1.1-.693-2.78-2.053-3.178-2.453.143-.345.794-1.497 1.162-2.114L48.09 80.485c-2.91.064-5.902.42-8.893-1.438-1.147-.71-5.074-3.217-7.34-4.758a54.767 54.767 0 0 0 3.252-2.02l-2.97-1.875z" fill="#31327f"/><path d="M32.593 69.817l3.122 1.976c-1.217.832-2.713 1.767-3.215 2.05 2.267 1.543 5.992 3.92 7.14 4.63 2.997 1.864 5.993 1.5 8.906 1.438l94.414 59.72c3.19 2.015 7.89 4.706 11 6.24l-.095.13c-2.674-.4-5.157-1.743-7.22-3.044-.38.623-.67 1.168-.826 1.52.4.4 2.08 1.76 3.174 2.46 2.568 1.622 6.73 2.245 8.87 1.006.426-2.33-1.752-5.712-4.32-7.332-1.1-.7-3.07-1.646-3.62-1.842-.28.25-1.187 1.278-1.607 1.826l-98.6-62.36c-1.027-2.545-1.79-5.274-4.744-7.173-1.134-.732-4.88-3.08-7.256-4.472-.086.54-.447 2.176-.812 3.545l-3.117-1.974-1.196 1.66z" fill="#fff"/><path d="M38.657 71.617c.15-1.01.18-2.674.18-3.076 0-.26.364-.03.395.118.164.695.173 2.32.294 3.507l-.87-.543zm2.818 1.777a34.114 34.114 0 0 0-.288-3.447c-.05-.34.38-.036.445.116.422 1 .656 3.248.728 3.89l-.885-.56zm5.71 3.614c-.17-1.02-.433-2.32-.63-2.835-.26-.674.21-.3.347-.047.502.916.936 2.402 1.113 3.41l-.83-.528zm-2.81-1.778c-.03-1.043-.368-2.743-.54-3.61-.07-.336.406-.018.474.138.43.975.9 3.403.98 4.047l-.92-.575zm-6.545-2.457c-.945.507-2.58 1.153-2.975 1.304-.264.1.097.33.258.306.747-.12 2.358-.72 3.58-1.06l-.862-.55zm2.813 1.782c-1.04.364-2.56.813-3.517 1.04-.357.083.1.346.283.346 1.143-.003 3.45-.65 4.114-.822l-.885-.56zm5.71 3.61c-1.07.233-2.46.494-3.036.512-.765.03-.223.298.08.322 1.093.09 2.726-.09 3.786-.31l-.83-.53zm-2.81-1.78c-1.043.37-2.85.71-3.77.886-.364.07.13.36.313.368 1.128.01 3.705-.493 4.368-.67l-.912-.578zm123.012-35.36l-1.204-1.666-110.47 69.87c-1.212.77-2.61 1.69-4.015 2.65l-.553-.76c-.523-.534-.953-.988-1.24-1.256-.553.2-2.526 1.152-3.63 1.843-2.56 1.624-4.89 5.1-4.463 7.43 2.142 1.243 6.45.52 9.02-1.102 1.096-.698 2.776-2.058 3.18-2.458-.15-.337-.798-1.49-1.167-2.114L150.6 51.11c2.915.065 5.907.426 8.897-1.432 1.148-.71 5.076-3.218 7.342-4.758a55.636 55.636 0 0 1-3.257-2.02l2.968-1.876z" fill="#31327f"/><path d="M164.903 38.784l-3.115 1.973c-.362-1.375-.725-3.007-.816-3.55-2.375 1.397-6.122 3.746-7.254 4.472-2.952 1.9-3.72 4.623-4.743 7.174L50.37 111.22c-.42-.548-1.327-1.575-1.603-1.83-.55.2-2.524 1.148-3.622 1.843-2.57 1.627-4.743 5.007-4.322 7.336 2.148 1.24 6.304.61 8.872-1.008 1.096-.697 2.776-2.06 3.18-2.46a12.545 12.545 0 0 0-.83-1.524c-2.056 1.303-4.545 2.643-7.218 3.043l-.092-.126c3.107-1.53 7.805-4.224 10.996-6.243l94.42-59.713c2.917.064 5.91.43 8.908-1.435 1.15-.71 4.872-3.086 7.144-4.633-.502-.28-1.996-1.217-3.22-2.048l3.124-1.976-1.196-1.664z" fill="#fff"/><path d="M160.035 42.247c-.15-1.013-.177-2.675-.177-3.077 0-.268-.36-.04-.398.108-.165.696-.168 2.32-.29 3.51l.865-.54zm-2.818 1.773c.03-1.04.156-2.525.29-3.445.047-.344-.383-.04-.448.117-.426 1-.65 3.243-.73 3.89l.883-.562zm-5.712 3.616c.174-1.018.438-2.324.636-2.834.26-.675-.21-.304-.344-.05-.502.92-.938 2.402-1.114 3.406l.827-.522zm2.815-1.78c.027-1.04.365-2.74.538-3.606.072-.342-.407-.02-.475.136-.433.975-.9 3.404-.976 4.047l.912-.578zm6.543-2.46c.95.507 2.58 1.158 2.974 1.306.267.1-.096.334-.254.306-.747-.117-2.362-.72-3.58-1.06l.86-.55v-.002zm-2.81 1.784c1.037.37 2.557.817 3.517 1.04.36.087-.105.35-.28.344-1.15-.008-3.457-.648-4.12-.827l.883-.556zm-5.715 3.614c1.076.228 2.46.49 3.038.51.77.026.22.3-.077.32-1.1.096-2.73-.084-3.79-.31l.824-.52zm2.818-1.78c1.037.366 2.845.707 3.766.88.362.068-.133.36-.314.366-1.13.01-3.7-.49-4.364-.667l.912-.578zm17.727 3.774l-1.195-1.66L61.208 119c-1.215.77-2.605 1.69-4.012 2.655l-.556-.76c-.522-.534-.952-.988-1.246-1.26-.546.2-2.524 1.15-3.625 1.848-2.57 1.623-4.89 5.096-4.47 7.424 2.145 1.243 6.45.526 9.02-1.1 1.102-.695 2.78-2.06 3.18-2.46-.15-.34-.796-1.492-1.168-2.11l98.6-62.358c2.907.06 5.9.42 8.89-1.44 1.152-.71 5.078-3.215 7.346-4.756a56.052 56.052 0 0 1-3.25-2.02l2.962-1.88z" fill="#31327f"/><path d="M171.238 48.548l-3.12 1.973c-.363-1.37-.723-3-.816-3.54a272.038 272.038 0 0 0-7.25 4.472c-2.956 1.9-3.72 4.628-4.743 7.176L56.7 120.99c-.422-.554-1.327-1.576-1.608-1.836-.547.196-2.523 1.15-3.62 1.843-2.566 1.628-4.744 5.007-4.318 7.336 2.142 1.243 6.297.615 8.866-1.008 1.1-.694 2.777-2.054 3.183-2.46-.158-.35-.442-.896-.83-1.52-2.062 1.302-4.544 2.646-7.222 3.04l-.09-.126c3.11-1.53 7.81-4.22 11-6.24l94.415-59.72c2.912.064 5.91.427 8.908-1.432 1.146-.71 4.872-3.09 7.14-4.63-.503-.28-1.994-1.22-3.215-2.05l3.116-1.974-1.192-1.667z" fill="#fff"/><path d="M166.366 52.007c-.146-1.01-.178-2.667-.178-3.068 0-.27-.362-.047-.393.103-.164.694-.173 2.32-.294 3.508l.87-.547zm-2.82 1.78a33.66 33.66 0 0 1 .295-3.444c.05-.346-.38-.04-.44.116-.427 1-.656 3.24-.73 3.884l.88-.56zm-5.706 3.618c.173-1.023.435-2.325.632-2.834.256-.67-.212-.3-.347-.05-.503.92-.936 2.407-1.112 3.41l.828-.52zm2.813-1.782c.026-1.04.367-2.738.54-3.61.07-.336-.406-.016-.478.14-.435.976-.902 3.406-.978 4.048l.916-.573zm6.545-2.458c.944.505 2.58 1.153 2.973 1.306.27.1-.093.33-.25.307-.748-.114-2.36-.716-3.58-1.058l.862-.55zm-2.813 1.783c1.04.37 2.558.815 3.515 1.04.358.088-.103.345-.28.345-1.146-.004-3.454-.65-4.12-.827l.885-.558zm-5.715 3.614c1.076.227 2.462.49 3.04.51.765.026.222.295-.08.32-1.096.092-2.725-.084-3.785-.31l.824-.52zm2.815-1.784c1.043.37 2.847.712 3.77.883.364.07-.13.367-.31.37-1.13.014-3.704-.49-4.372-.666l.912-.58zm17.742 3.864l-1.197-1.667L67.548 128.85c-1.213.772-2.604 1.69-4.01 2.654l-.555-.76c-.522-.538-.95-.99-1.246-1.255-.546.19-2.52 1.143-3.62 1.84-2.57 1.62-4.893 5.1-4.466 7.422 2.146 1.243 6.456.526 9.02-1.098 1.1-.697 2.776-2.054 3.18-2.46-.15-.338-.797-1.49-1.163-2.11l98.597-62.364c2.91.066 5.904.428 8.894-1.43 1.147-.71 5.075-3.214 7.344-4.758a54.556 54.556 0 0 1-3.25-2.02l2.96-1.872z" fill="#31327f"/><path d="M177.58 58.4l-3.116 1.97c-.365-1.366-.726-3.003-.815-3.546-2.38 1.398-6.128 3.746-7.26 4.477-2.954 1.9-3.718 4.63-4.744 7.177L63.044 130.84c-.418-.55-1.327-1.577-1.607-1.835-.546.2-2.52 1.148-3.618 1.847-2.57 1.623-4.744 5.003-4.32 7.33 2.143 1.24 6.296.616 8.87-1.003 1.1-.704 2.776-2.06 3.18-2.464a14.046 14.046 0 0 0-.83-1.522c-2.063 1.306-4.547 2.652-7.225 3.043l-.09-.128c3.11-1.523 7.81-4.224 11-6.243L162.82 70.15c2.915.067 5.91.433 8.91-1.432 1.147-.71 4.87-3.087 7.14-4.628-.506-.287-1.997-1.222-3.22-2.053l3.125-1.974-1.198-1.662v.006z" fill="#fff"/><path d="M172.712 61.86c-.147-1.01-.177-2.674-.177-3.075 0-.27-.362-.04-.4.11-.16.698-.172 2.325-.29 3.508l.867-.542zm-2.818 1.778c.025-1.043.16-2.528.29-3.447.05-.34-.38-.04-.446.12-.422 1-.65 3.24-.728 3.89l.884-.56zm-5.71 3.616c.17-1.02.434-2.32.63-2.836.26-.674-.21-.3-.344-.052-.504.92-.938 2.406-1.114 3.413l.83-.53zm2.813-1.784c.026-1.04.37-2.737.538-3.606.072-.34-.405-.02-.478.138-.43.976-.9 3.405-.977 4.045l.917-.578zm6.543-2.456c.946.505 2.58 1.155 2.974 1.31.266.1-.096.328-.256.3-.748-.118-2.355-.718-3.577-1.06l.86-.55zm-2.808 1.786a41.06 41.06 0 0 0 3.516 1.04c.357.085-.105.344-.286.342-1.145-.005-3.453-.648-4.12-.824l.89-.56zm-5.718 3.61c1.078.232 2.466.488 3.04.514.764.023.22.295-.076.322-1.097.084-2.73-.092-3.79-.314l.826-.523zm2.814-1.78c1.04.37 2.85.707 3.77.883.362.07-.133.362-.313.362-1.13.01-3.702-.49-4.368-.666l.91-.58zm17.874 3.765l-1.198-1.66-110.48 69.872a135.02 135.02 0 0 0-4.01 2.65l-.557-.756c-.525-.533-.95-.99-1.25-1.254-.54.204-2.52 1.15-3.62 1.843-2.566 1.626-4.887 5.095-4.466 7.426 2.147 1.244 6.46.524 9.02-1.1 1.107-.693 2.78-2.053 3.18-2.453-.144-.345-.8-1.497-1.16-2.114l98.598-62.36c2.907.064 5.9.42 8.89-1.438 1.15-.71 5.077-3.217 7.344-4.76a53.924 53.924 0 0 1-3.252-2.02l2.966-1.873z" fill="#31327f"/><path d="M184.056 68.155l-3.12 1.973c-.363-1.37-.723-3.004-.816-3.545-2.376 1.392-6.116 3.74-7.252 4.472-2.953 1.9-3.717 4.628-4.742 7.174l-98.603 62.36c-.423-.55-1.327-1.58-1.608-1.83-.547.196-2.523 1.14-3.62 1.842-2.57 1.62-4.745 5.003-4.318 7.332 2.142 1.24 6.298.616 8.867-1.007 1.1-.7 2.777-2.06 3.178-2.46a12.67 12.67 0 0 0-.823-1.52c-2.068 1.3-4.55 2.646-7.227 3.043l-.093-.13c3.108-1.53 7.81-4.222 11-6.236l94.413-59.717c2.913.06 5.912.426 8.91-1.438 1.147-.71 4.872-3.09 7.138-4.63-.5-.285-1.995-1.22-3.212-2.05l3.12-1.978-1.195-1.662z" fill="#fff"/><path d="M179.184 71.617c-.145-1.01-.176-2.674-.176-3.076 0-.26-.364-.03-.395.118-.165.695-.177 2.32-.295 3.507l.866-.543zm-2.82 1.777c.03-1.038.16-2.528.294-3.447.05-.34-.38-.036-.445.116-.426 1-.656 3.248-.73 3.89l.882-.56zm-5.704 3.614c.17-1.02.432-2.32.628-2.835.257-.674-.212-.3-.345-.047-.507.916-.935 2.402-1.114 3.41l.83-.528zm2.81-1.778c.026-1.043.368-2.743.54-3.61.07-.336-.406-.018-.48.138-.432.975-.9 3.403-.973 4.047l.914-.575zm6.547-2.457c.943.507 2.574 1.153 2.973 1.304.265.1-.1.33-.257.306-.75-.12-2.364-.72-3.583-1.06l.867-.55zm-2.817 1.782a40.94 40.94 0 0 0 3.52 1.04c.356.083-.105.346-.283.346-1.15-.003-3.457-.65-4.12-.822l.884-.56zm-5.713 3.61c1.078.233 2.46.494 3.042.512.76.03.22.298-.08.322-1.1.09-2.73-.09-3.79-.31l.823-.53zm2.817-1.78c1.04.37 2.844.71 3.765.886.362.07-.13.36-.31.368-1.13.01-3.71-.493-4.37-.67l.91-.578z" fill="#31327f"/><path d="M111.918 134.365c-.04-.818-.04-3.238-.08-3.606-.044-.377-.245-.417-.45-.29-.208.12-.538.4-.912.69 0-.457.065-1.386.065-1.715 0-.52-.07-.558-.433-.252-.176.153-.326.024-.4-.172-.115-.332-.738-1.96-.862-2.33-.124-.366-.3-.297-.49.084-.205.41-.68 1.685-.8 2.053-.157.46-.234.443-.527.216-.43-.346-.53-.188-.493.093.068.53.382 1.78.466 2.477-.207-.368-.667-.8-.904-1.065-.258-.29-.444-.17-.452.24-.012.456-.08 2.01-.08 3.074l3.366 2.347 2.99-1.85zm-25.9 16.875c-1.012-.33-2.198-.754-2.596-.88-.383-.125-.438-.4-.085-.548.345-.148.89-.37 1.293-.533-.686-.137-1.884-.33-2.402-.46-.522-.12-.447-.36-.12-.534.18-.1.197-.15-.052-.33-.314-.235-1.288-1.145-1.614-1.466-.304-.293-.31-.484.073-.492.39 0 1.943-.03 2.365-.063.365-.024.396-.045.208-.323-.26-.387-.218-.576.06-.486.31.1 1.628.534 2.053.667a8.49 8.49 0 0 1-.3-1.042c-.055-.234.05-.414.415-.34.362.075 2.665.824 3.458 1.04l.93 3.607-3.68 2.18zm6.222 21.186c-.446.69-1.503 2.122-1.688 2.446-.18.322-.04.474.197.494.24.024.634-.023 1.144-.094-.265.365-1.82 1.887-2.014 2.15-.19.266.64.11.894.05.205-.043.173 0 .115.36-.06.366-.586 1.844-.7 2.212-.12.372.13.518.512.32.406-.206 1.7-1.115 2.013-1.348.306-.214.342-.23.495.487.078.36.33.725.61.27.284-.454 1.24-2.634 1.585-3.488-.047.415.072 1.035.104 1.392.036.383.302.418.51.066.206-.357 1.246-1.58 1.878-2.44l-.77-3.62-4.89.743zm27.552 3.984c.517.64 1.642 2.234 1.894 2.51.25.273.442.187.53-.036.098-.22.214-.506.342-.954.266.36.913 1.303 1.103 1.568.228.307.36.378.458-.046.092-.42.124-.42.45-.25.325.168 1.44.956 1.756 1.178.32.232.6.13.53-.292-.078-.455-.327-1.758-.445-2.125-.12-.37-.097-.31.274-.283.774.063.658-.212.307-.62-.345-.403-1.217-1.222-1.692-1.737.384.176 1 .28 1.355.33.555.073.693-.09.322-.5-.274-.31-1.41-1.582-2.038-2.444l-4.542-.648-.6 4.343zm10.418-24.772c.77-.288 2.913-.798 3.394-.892.34-.064.454-.243.136-.518a8.425 8.425 0 0 0-.864-.666c.43-.142 1.483-.59 1.792-.686.32-.102.057-.32-.164-.45-.264-.158-.264-.205-.023-.37.3-.212 1.758-1.18 2.07-1.41.313-.233.194-.38-.23-.445-.455-.06-1.77 0-2.16 0-.39 0-.426-.022-.333-.382.14-.57.11-.725-.382-.518-.495.203-1.448.775-2.085 1.07.282-.31.46-.84.57-1.18.194-.58.056-.608-.32-.444-.38.17-2 .648-3.012.976l-2.083 4.13 3.697 1.79z" fill="#00a650"/><path d="M133.31 148.232l.68.444c-.31.098-1.384.455-1.708.517-.555.11-.402.298-.137.53.212.184.538.31.878.607-.287.06-1.43.247-2.462.525a5.985 5.985 0 0 0-2.45-.96c1.864-.788 3.648-1.666 4.05-1.812.544-.196.663-.698-.127-.403-.597.22-2.492.832-4.38 1.46.88-.774 1.31-1.743 1.32-2.903.7-.227 1.838-.59 2.235-.745-.102.232-.26.706-.417 1.012-.275.536-.24.838.62.337.337-.19 1.79-.86 1.79-.86l-.04.736c.324.063 1.524-.044 2.468-.044-.48.24-1.79 1.05-2.314 1.564zm-7.167 26.727c-.252-.03-.802-.13-1.144-.186-.53-.085-.68.424-.147.808.32.224 1.532 1.604 1.532 1.604l-.82-.1c.16.354.44 1.507.627 2.486-.384-.384-1.68-1.153-2.316-1.545l-.146.722a26.828 26.828 0 0 1-.98-1.578c-.16-.29-.397-.29-.493-.07-.092.22-.276.62-.417 1.086a22.6 22.6 0 0 0-1.103-1.686c.374-1.02.382-2.08.306-3.007 1.018 1.195 2.798 3.12 3.063 3.477.35.46.867.436.35-.24a267.808 267.808 0 0 1-2.607-3.613c.65.273 1.2.32 1.885.32.3 0 .61-.03.924-.1.426.476 1.185 1.262 1.48 1.614zm-16.796-39.418c-.09-1.558-.374-4.234-.38-4.69 0-.576-.432-.862-.425-.015.008.607-.03 2.84-.068 4.36-.68-1.127-1.407-1.675-2.31-1.87a60.666 60.666 0 0 0-.072-1.92c.192.172.574.577.82.822.373.374.798.045.59-.57-.125-.372-.414-2.066-.414-2.066l.52.427c.164-.285.7-1.64.987-2.543.085.536.616 2.044.945 2.704l.53-.443c0 .328-.076 1.465-.12 1.795-.042.33.244.514.45.392.21-.125.466-.314.873-.66-.037.33-.146 1.782-.057 2.91-.973.29-1.52.813-1.87 1.37zm-13.33 41.432c-.054-.247-.127-.8-.18-1.145-.085-.525-.614-.51-.815.115-.117.372-1.368 2.936-1.368 2.936l-.25-.91c-.59.416-1.714 1.1-2.415 1.61.24-.476.66-2.03.78-2.75l-.84.166c.19-.27 1.53-1.705 1.76-1.95.22-.237.09-.42-.21-.393-.237.024-.586.016-1.08.024.194-.21.84-1.056 1.41-1.877.31.035.63.06.952.06.534 0 1.342-.09 2.182-.494-1 1.4-2.466 3.525-2.71 3.862-.342.465-.16.952.333.26.38-.524 2.207-2.633 3.282-3.884-.24 1.075-.173 2.043.145 2.91-.35.5-.784 1.144-.983 1.462zm-11.292-29.29c.534.207 2.398.83 3.78 1.324-1.072.05-1.968.57-2.66 1.542a36.57 36.57 0 0 0-1.688-.478c.22-.13.752-.42 1.057-.585.47-.25.498-.553-.382-.683-.386-.05-2-.296-2-.296l.5-.303c-.22-.247-1.284-1.13-2.058-1.678.533.027 2.044-.044 2.78-.11l-.314-.59c.314.105 1.43.477 1.727.617.3.142.563-.074.512-.305-.058-.24-.12-.52-.227-.98.31.14 1.645.685 2.742.924-.005.093-.01.18-.01.274 0 .715.2 1.335.596 1.947-1.51-.393-3.795-.86-4.187-1.013-.54-.207-.966.09-.173.393zm51.592-1.487c-.455-.066-1.768 0-2.158-.003-.396 0-.43-.024-.34-.384.14-.57.11-.724-.38-.517-.495.204-1.448.776-2.085 1.07.284-.31.46-.838.573-1.18.19-.58.052-.607-.32-.443-.31.137-1.64.537-2.674.86-.475-4.722-6.51-11.67-15.82-11.67-.456 0-.852.032-1.21.088-.03-1.006-.034-2.94-.07-3.26-.044-.372-.245-.412-.45-.286-.208.12-.538.398-.912.69 0-.456.065-1.385.065-1.714 0-.52-.07-.558-.437-.252-.176.153-.326.024-.4-.172-.115-.333-.738-1.96-.862-2.33-.123-.367-.3-.298-.49.083-.204.41-.68 1.683-.8 2.05-.156.46-.233.445-.526.218-.43-.347-.53-.19-.493.092.07.53.382 1.78.466 2.478-.207-.368-.667-.8-.904-1.065-.258-.29-.444-.168-.452.242-.01.373-.057 1.482-.076 2.464a2.034 2.034 0 0 0-.25-.017c-6.39 0-15.938 5.124-16.763 12.146-.926-.266-2.903-.91-3.24-.975-.363-.073-.47.107-.41.343.054.234.143.606.303 1.042a268 268 0 0 1-2.05-.668c-.28-.09-.323.1-.062.487.19.277.16.3-.205.32-.422.03-1.974.063-2.365.063-.387.008-.38.2-.075.493.326.32 1.3 1.23 1.614 1.467.25.182.23.23.05.33-.328.174-.4.413.12.535.52.13 1.715.322 2.402.454a75.89 75.89 0 0 0-1.293.533c-.35.146-.297.42.086.55.298.09 1.227.413 2.097.71-.805 1.452-1.247 3.666-1.247 6.65 0 8.163 3.104 13.855 7.816 14.945-.6.85-1.4 1.97-1.538 2.203-.18.32-.04.473.197.493.24.025.64-.022 1.15-.093-.265.364-1.82 1.886-2.014 2.15-.192.265.64.11.893.05.204-.044.172 0 .114.36-.062.365-.585 1.843-.702 2.21-.116.373.133.52.516.32.404-.205 1.7-1.114 2.01-1.347.306-.214.34-.23.495.487.077.36.33.725.61.27.283-.454 1.24-2.634 1.584-3.488-.048.414.07 1.034.103 1.39.038.384.304.42.513.067.144-.252.707-.934 1.24-1.617 1.66 3.153 6.81 4.75 12.15 4.75 6.973 0 9.858-1.67 10.995-3.66.52.7 1.107 1.514 1.28 1.703.25.273.44.187.53-.036.097-.22.213-.506.34-.954.267.36.914 1.303 1.104 1.568.224.308.357.38.454-.045.09-.42.123-.42.45-.25.324.168 1.44.956 1.755 1.178.32.232.6.13.53-.292-.076-.454-.325-1.757-.443-2.124-.12-.37-.096-.31.275-.284.774.063.658-.212.307-.62-.347-.403-1.22-1.222-1.694-1.737.383.175 1 .28 1.354.33.556.072.694-.09.323-.5-.226-.257-1.052-1.183-1.688-1.987 3.96-1.368 8.372-7.676 8.372-15.913 0-2.752-1.066-4.705-2.47-5.92a41.494 41.494 0 0 1 2.418-.588c.34-.064.454-.243.136-.518a8.425 8.425 0 0 0-.862-.667c.43-.142 1.483-.59 1.792-.686.32-.102.056-.32-.165-.45-.264-.158-.264-.205-.023-.37.296-.212 1.754-1.18 2.065-1.41.314-.233.195-.38-.228-.445z" fill="#31327f"/><path d="M115.592 165.946c.475 1.07 4.374 5.072 4.374 7.74 0 4.343-3.738 5.66-10.426 5.66-8.55 0-11.866-3.462-11.866-5.864 0-2.186 2.34-5.338 4.425-7.636.91-1.003-.458-1.904-1.05-.747-.65 1.27-3.726 6.782-6.828 6.782-6.225 0-8.703-8.987-8.703-15.87 0-3.757 1.255-6.152 4.024-6.152 1.323 0 4.317 1.768 8.755 3.13 1.27.395 2.114-1.075.292-1.28-4.142-.473-9.087-2.505-9.087-5.292 0-6.48 11.775-12.22 15.514-12.22 3.642 0 4.012 5.47 3.563 12.024-.08 1.208 1.366 1.18 1.33-.06-.17-1.613-.306-5.863-.516-7.69-.184-1.64.856-3.538 3.75-3.538 6.823 0 14.82 7.28 14.82 11.237 0 2.51-4.168 4.867-9.28 5.828-1.37.254-.483 1.752.635 1.175 1.63-.84 5.373-2.37 7.825-2.37 2.308 0 4.97 1.975 4.97 5.933 0 9.057-4.993 15.795-8.335 15.795-3.02 0-5.4-4-7.167-7.214-.464-.853-1.49-.43-1.024.626z" fill="#fff"/><path d="M111.208 145.696c-.034-.573-.43-4.297-.43-5.222 0-2.78.782-4.08 2.736-4.08 1.987 0 4.05 3.28 5.993 3.28.48 0 .95-.262 1.21-.58.2-.248.628-.044.53.294-.11.356-.14.843-.14 1.318 0 2.802 5.158 2.534 5.158 5.06 0 3.396-5.58 4.752-7.444 4.728-1.05-.008-.594-.36-.164-.36 3.22-.02 6.982-2.32 6.982-4.164 0-2.418-6.272-2.03-4.953-6.226-2.86 2.1-4.7-2.56-7.085-2.56-1.327 0-2.14.82-2.14 3.235 0 .85.12 4.42.176 5.264.057.842-.39.58-.425.008zM99.45 150.36c-1.008-.517-4.12-1.002-4.998-1.285-3.092-1-3.345-2.673-2.984-3.83.544-1.737 4.457-2.823 5.037-4.705a1.522 1.522 0 0 0-.19-1.32c-.2-.282.126-.644.387-.464.22.14.913.468 1.282.585 2.516.78 4.238-4.084 6.64-3.29 3.685 1.22 1.776 7.697 1.836 9.33.02.642-.44.84-.495.14-.122-1.585 1.614-7.74-1.65-8.76-2.312-.726-3.546 5.336-7.38 2.69.835 3.3-3.972 3.834-4.627 5.944-.402 1.286.56 2.537 2.473 3.16.82.258 4.24 1.036 4.86 1.518.31.24.49.65-.19.295zm.583 12.74c-.418.67-1.945 3.74-2.49 4.488-1.618 2.227-3.94 2.51-5.355 1.482-1.383-1.003-1.487-5.25-2.787-6.187-.41-.3-.923-.352-1.353-.258-.322.07-.594-.303-.288-.502.253-.168.77-.702.96-1.02 1.35-2.258-2.786-5.132-1.03-7.465 1.883-2.517 7.463-.05 9.565 1.482.543.393.575.903-.024.51-3.12-2.018-7.49-3.394-8.87-1.49-1.427 1.957 3.673 5.372.137 7.995 3.407-.016 2.44 4.936 4.223 6.228 1 .73 2.955.484 4.193-.913.567-.643 2.486-4.065 2.823-4.66.337-.596.71-.36.296.31zm13.695 3.908c.373.55 2.424 3 3.063 3.67 1.82 1.896 1.74 3.896.58 4.987-1.463 1.364-5.378-.283-7.035 1.02-.336.265-.553.908-.593 1.178-.085.53-.56.45-.635.153-.085-.29-.507-.995-.675-1.23-1.55-2.126-5.86.338-7.515-1.588-1.99-2.328 1.032-6.547 2.636-7.954.47-.416.975-.24.485.17-2.817 2.365-3.63 5.835-2.71 7.098 1.425 1.96 6.837-1.49 8.016 2.808 1.31-3.553 5.51-.977 7.3-2.274.997-.725.936-2.298-.177-3.827-.497-.696-2.8-3.47-3.106-3.94-.304-.48 0-.82.375-.276zm6.576-12.416c1.563-.16 3.56-.522 4.642-1.064 2.45-1.22 4.224-.403 4.714 1.42.452 1.65-1.423 5.112-.902 6.925.123.407.672.882.94.95.264.076.254.614-.045.628a5.84 5.84 0 0 0-1.374.27c-2.5.845-1.3 5.412-3.7 6.193-3.39 1.098-6.34-4.015-6.75-5.58-.24-.944.15-.83.323-.4 1.343 3.36 4.212 5.824 6.09 5.21 2.302-.742.41-6.083 4.81-6.13-2.616-2.184.548-5.795-.133-7.89-.447-1.382-1.71-1.853-3.74-1.03-1.79.735-3.84.93-4.893.906-.734-.01-1.025-.3.013-.404z" fill="#31327f"/><path d="M125.935 161.707c-.39-.286-6.91-2.147-8.545-2.476 1.51.24 6.435-.69 7.713-1.37.357-.194.345-.73-.195-.57-.88.26-4.905 1.4-7.56 1.567.238-.78.396-1.62.396-2.51 0-2.113-.97-4.128-2.517-5.793a6.15 6.15 0 0 0-.647-.59c2.243-1.702 5.732-2.82 6.558-2.93.705-.094.85-.72.146-.706-.848.024-5.174 1.332-6.993 3.423l-.02-.012c1.12-1.615 4.188-6.25 4.754-6.802.654-.63.02-.944-.382-.656-.383.266-3.86 5.42-4.88 7.134a.086.086 0 0 1-.025-.016c.657-1.607 1.225-6.17.983-7.523-.077-.403-.588-.554-.608.007-.026.848-.275 4.734-.793 7.297-1.343-.66-3.027-1.037-4.837-1.037-1.64 0-2.92.467-4.025 1.2-1.27-2.63-1.166-7.026-.996-7.948.125-.696-.423-1.026-.624-.355-.26.86-.34 5.838 1.344 8.075-.798-1.076-4.897-6.202-5.278-6.97-.402-.815-.893-.313-.743.16.144.468 4.324 5.793 5.45 7.022-1.083-1.08-5.616-3.218-7.047-3.414-.405-.053-.707.38-.176.57.917.33 5.34 2.055 7.342 3.41a15.23 15.23 0 0 0-1.56 1.526c-1.318 1.472-1.913 3.43-1.913 5.836 0 .548.058 1.09.166 1.623-2.953.065-7.025-1.92-7.78-2.495-.57-.424-1.03-.093-.516.384.655.61 5.077 2.91 7.832 2.406-1.318.23-7.66 1.537-8.6 1.604-.905.068-.68.66-.185.73.477.088 7.118-1.274 8.725-1.733-1.455.487-5.39 3.58-6.21 4.78-.228.328.03.8.434.412.724-.69 4.44-4.1 6.53-5.237.602 1.796 1.903 3.342 3.997 4.298 1.05.48 2.405.96 3.83 1.085-.62 3.113-3.11 6.543-3.77 7.178-.52.49-.267 1.084.292.66.71-.545 3.71-4.53 3.666-7.323.012 1.337.308 7.89.164 8.735-.152.897.538.78.7.308.157-.462-.092-7.226-.28-8.883.24 1.51 2.65 5.9 3.693 6.9.293.285.794.105.477-.358-.998-1.474-3.22-4.638-3.928-7.2 2.252-.103 5.36-1.307 6.623-3.487.29-.5.587-1.066.85-1.685 2.472 1.502 4.834 4.803 5.22 5.603.307.644.95.585.715-.08-.297-.84-3.16-4.922-5.838-5.746 1.273.41 7.608 2.15 8.373 2.55.798.424.903-.275.505-.573z" fill="#31327f"/><path d="M108.76 155.176c.84 0 1.442.72 1.442 1.207 0 .726-.686 1.318-1.29 1.318-.603 0-1.286-.584-1.286-1.28 0-.67.587-1.24 1.134-1.24zm-3.308-.81c.754 0 1.09.866 1.09 1.305 0 .65-.66 1.278-1.202 1.278-.544 0-.95-.616-.95-1.235 0-.607.57-1.342 1.062-1.342zm.788 3.46c.76 0 1.137.635 1.137 1.074 0 .652-.453 1.192-.997 1.192-.546 0-1.416-.392-1.416-1.02 0-.603.79-1.246 1.276-1.246zm3.633 1.286c.76 0 1.143.64 1.143 1.075 0 .658-.46 1.2-1 1.2-.545 0-1.155-.534-1.155-1.16 0-.6.53-1.115 1.017-1.115zm2.32-2.258c.76 0 1.136.643 1.136 1.08 0 .652-.458 1.194-1 1.194-.547 0-1.154-.53-1.154-1.157 0-.6.522-1.112 1.012-1.112zm-.723-3.866c.76 0 1.293.804 1.293 1.242 0 .655-.454 1.196-.995 1.196-.548 0-1.16-.533-1.16-1.155 0-.603.374-1.28.86-1.28zm3.66 0c.736 0 1.102.62 1.102 1.05 0 .628-.442 1.16-.965 1.16-.53 0-1.124-.517-1.124-1.124 0-.584.513-1.086.988-1.086zm-2.725-3.153c.737 0 1.105.617 1.105 1.048 0 .63-.446 1.16-.967 1.16-.532 0-1.128-.522-1.128-1.126 0-.587.51-1.082.99-1.082zm2.98 7.37c.734 0 1.1.62 1.1 1.044 0 .63-.563 1.34-1.09 1.34-.53 0-1-.7-1-1.305 0-.59.51-1.084.99-1.084zm-2.415 3.507c.735 0 1.517.526 1.517.944 0 .635-.82 1.49-1.35 1.49-.518 0-1.258-.286-1.258-.858 0-.59.61-1.576 1.09-1.576zm-4.938 1.12c.736 0 1.607.888 1.607 1.31 0 .636-.66 1.06-1.19 1.06-.53 0-1.124-.52-1.124-1.123 0-.59.223-1.25.7-1.25zm-3.716-1.066c.733 0 1.397.604 1.397 1.03 0 .638-.74 1.173-1.265 1.173-.526 0-1.122-.517-1.122-1.127 0-.586.51-1.08.99-1.08zm-2.08-3.552c.737 0 1.105.62 1.105 1.043 0 .635-.44 1.16-.963 1.16-.53 0-1.12-.513-1.12-1.12 0-.588.51-1.083.984-1.083zm.41-4.374c.735 0 1.105.614 1.105 1.042 0 .636-.65 1.345-1.172 1.345-.532 0-.915-.702-.915-1.306 0-.584.51-1.08.988-1.08zm6.204-3.93c.734 0 1.103.62 1.103 1.043 0 .632-.44 1.16-.968 1.16-.53 0-1.122-.518-1.122-1.12 0-.59.51-1.083.986-1.083zm-3.97 1.076c.74 0 1.107.614 1.107 1.043 0 .63-.442 1.16-.968 1.16-.53 0-1.127-.52-1.127-1.13 0-.586.51-1.078.984-1.078zm3.087 1.974c.76 0 1.135.64 1.135 1.076 0 .65-.456 1.2-.993 1.2-.55 0-1.16-.534-1.16-1.157 0-.61.523-1.12 1.013-1.12z" fill="#fff200"/><path d="M108.827 5.352c4.34 0 6.143 2.834 4.326 7.183.824 0 1.19-.832 1.767-2.575 3.07 1.188 3.543 4.74 1.006 6.88 1.572-.722 2.882-.625 3.8.08-1.258.76-1.65 1.414-1.56 2.093.96-.663 1.78-1.417 3.665-1.417 1.95 0 3.948 1.284 3.948 4.383 0 4.78-2.974 5.22-6.78 4.35 0 .2.68 1.06 1.35 1.41-3.072.91-6.82.072-9.416-1.44 1.465 4.74 8.725 6.67 14.19 2.202 2.2 5.75 11.123 6.58 15.11 1.73-3.745 1.713-7.837.748-9.755-1.087.707-.22 2-.74 2.54-1.45-3.023.036-4.39-1.132-4.39-3.455 0-2.29 2.41-4.834 5.202-4.834 2.03 0 2.997 1.385 3.72 3.07.38-.697.402-2.26.24-3.536 3.556-.152 4.235 2.044 4.857 3.394 1.066-4.608 4.152-7.93 10.93-6.706a12.592 12.592 0 0 0-2.638 3.787c.84-.727 1.952-1.673 4.267-1.673 3.01 0 4.607 2.08 4.587 4.102-.02 2.172-1.364 3.656-2.38 4.388-1.44-2.48-3.34-2.822-4.684-2.822-3.9 0-5.59 1.698-6.036 3.02 1.195 2.26-.26 4.08-2.78 3.82-.434.816-3.146 5.673-4.058 6.753.594 1.792.45 3.976-.89 5.942-.062.397-.32 2.32-.352 2.715.36.18.856.706.856 1.36 0 3.854-13.724 5.264-30.818 5.264-8.844 0-30.867-.996-30.867-5.06 0-.705.38-1.134.934-1.502-.086-.272-.227-2.463-.296-2.71-1.214-1.974-1.26-4.05-.515-5.683-.914-1.08-3.867-6.228-4.297-7.048-3.22.032-3.63-2.132-2.573-3.926-1.395-1.628-3.24-3.088-6.005-3.088-1.957 0-3.37.397-4.7 2.394-.923-.698-2.097-1.73-2.117-3.9-.024-2.445 2.147-3.943 4.176-3.943 2.08 0 3.388.827 4.523 2.05-.43-1.296-1.655-3.27-2.587-4.326 6.632-1.138 9.627 2.375 10.692 6.983.626-1.348 1.662-3.846 5.216-3.693-.232 1.277-.297 2.402.02 3.303.857-1.28 1.665-2.81 3.534-2.81 2.557 0 5.362 3.066 5.362 5.274 0 2.29-1.6 3.29-4.96 3.08.543.71 1.42 1.22 2.507 1.48-1.84 1.923-5.645 2.493-9.53.988 4.56 5.31 13.117 3.83 15.15-1.6 4.817 4.496 13 2.59 14.578-2.345-2.86 1.896-6.51 2.23-9.58 1.617.583-.407 1.085-1.076 1.24-1.464-4.155 1.114-6.54-.126-6.54-4.27 0-2.428 1.734-4.347 3.765-4.347 1.264 0 2.622.486 3.77 1.344.083-.68-.22-1.294-1.474-2.053.916-.705 2.086-.92 3.66-.195-2.27-1.934-2.126-5.737 1.19-6.876.41 1.6.85 2.637 1.63 2.747-1.795-4.618-.068-7.358 4.274-7.358z" fill="#31327f"/><path d="M67.026 21.446c-1.31-2.237-2.998-2.613-4.312-2.606-1.917.016-3.377 1.494-3.377 3.223 0 .92.343 1.674.74 2.013.812-1.086 2.377-3.064 6.95-2.63zm90.627 2.697c.48-.406.755-1.4.755-2.223 0-1.8-1.448-3.113-3.49-3.13-2.075-.01-3.164.692-4.42 2.444 4.742-.33 6.108 1.384 7.155 2.91zM108.607 51.32c12.874.093 28.943-1.28 28.943-4.02 0-1.783-13.244-4.663-28.832-4.663-15.803 0-28.652 2.864-28.652 4.674 0 1.626 13.584 3.89 28.54 4.01z" fill="#fff200"/><path d="M108.607 51.32c12.874.093 28.943-1.28 28.943-4.02 0-1.783-13.244-4.663-28.832-4.663-15.803 0-28.652 2.864-28.652 4.674 0 1.626 13.584 3.89 28.54 4.01z" fill="#fff200"/><path d="M74.01 29.33c.556.904 4.307 6.886 4.794 7.53 1.603.303 4.264.683 5.12.873 1.017.22 1.43 1.867.506 2.402-.87.502-4.192 3.04-4.75 3.426.024.45.148 1.28.176 1.67 7.49-2.74 17.32-3.73 28.948-3.73 14.084 0 22.38 1.607 28.726 3.83.077-.682.18-1.15.254-2.06-2.178-1.235-4.163-2.67-4.92-3.29-.792-.654-.286-2.12.443-2.33 1.54-.435 3.825-.866 5.734-1.243.187-.176 3.8-5.918 4.56-7.267.204-.647 1.117-2.08 1.91-2.498 1.456-3.23 4.705-4.51 9.49-3.772-1.646-1.15-4.18-.884-5.13-.643-.2.053-.64 0-.61-.433.58-2.222.99-3.54 2.2-5.28-6.11-.323-8.135 4.557-8.32 7.58-.02.34-.74.624-.823.227-.415-1.89-1.364-4.22-3.642-4.592.02 1.425.062 2.514-.475 3.44-.323.56-1.033.405-1.144.165-.813-1.722-1.762-2.825-2.876-2.825-1.817 0-2.707 1.042-2.108 2.023.237.377-.153.583-.57.46-.906-.267-1.68.13-1.68 1.556 0 1.74 1.548 2.598 3.943 2.334.582-.066.79.332.517.745-.253.39-1.178 1.185-1.815 1.563.538.42 2.002.947 4.337.947 2.01 0 3.998-.728 4.76-1.406.344-.31.955-.07.653.745-1.584 4.337-11.994 8.846-17.625.728-4.763 3.48-12.38 2.967-14.864-3.737-.28-.767.44-1.55 1.302-1.008.623.393 2.638 1.36 4.615 1.62.76.103 2.037.26 2.885.056-.353-.45-.77-1.244-.856-1.474-.16-.453.277-.69.8-.372.535.33.968.69 2.304.69 2.247 0 3.482-1.74 3.482-2.437 0-.952-.54-1.16-1.22-1.266-.32-.054-.38-.463-.153-.564.7-.326.89-.728.89-1.38 0-.82-.807-1.663-2.344-1.663-1.255 0-2.414.63-3.226 1.05a.59.59 0 0 1-.77-.233c-.202-.48-.217-1.28.54-2.368-.99-.213-4.037.894-6.617 3.366-.41.395-1.037-.5-.687-.713 3.462-2.107 5.723-4.304 5.723-6.14 0-1.065-.494-1.796-1.09-2.21-.623 1.386-1.748 2.184-2.46 2.184-.32 0-.74-.233-.658-.497.145-.44.63-2.134.63-3.267 0-1.73-1.125-3.11-2.206-3.11-.794 0-1.292.423-1.468.92-.113.315-.583.285-.727 0-.344-.68-.782-.94-1.453-.94-1.165 0-2.158 1.43-2.158 3.1 0 1.51.627 3.044.627 3.326.003.272-.48.444-.8.444-1.194 0-2.014-1.04-2.288-2.16-.644.278-1 1.395-1 2.266 0 2.057 1.855 3.64 5.634 6.145.334.225-.135 1.036-.577.67-2.83-2.33-5.604-3.472-6.59-3.262.734 1.41.592 1.924.392 2.4-.126.214-.613.334-.83.222-.812-.423-1.87-1.036-2.825-1.036-1.595 0-2.515.954-2.515 2.11 0 .197.23.763.873 1 .194.073.09.426-.15.46-.683.1-1.01.668-1.01 1.188 0 1.188 1.12 2.243 2.767 2.23 1.336-.01 2.36-.255 2.89-.68.47-.377.826-.024.634.416a93.27 93.27 0 0 1-.826 1.698c2.377.217 5.29-.337 7.482-1.71.818-.508 1.352.373 1.25.893-.927 4.804-8.817 8.42-14.96 3.996-6.224 7.427-14.636 4.287-17.52-.855-.31-.553-.203-1.42.576-.742 1 .862 2.75 1.28 4.94 1.28 1.87 0 3.068-.106 4.092-.784-.9-.41-1.76-1.27-2.01-1.66-.27-.412-.037-.933.542-.845 3.245.482 4.056-.86 4.05-1.898-.02-1.423-.714-2.185-1.78-1.896-.586.16-.843-.202-.662-.46.666-.958-.16-2.046-1.704-2.046-1.11 0-1.91.95-2.81 2.338-.223.35-.952.222-1.156-.132-.395-.686-.595-1.806-.306-3.072-2.07.343-3.454 2.474-3.928 4.66-.085.38-.925.13-.95-.236-.148-2.503-2.274-7.823-8.018-7.582 1.19 1.62 1.67 2.91 2.197 5.252.04.432-.554.517-.765.484-1.292-.187-2.756-.296-4.547.575 2.944-.485 6.61.384 8.885 3.743.682.312 1.855 1.646 1.89 2.79z" fill="#fff200"/><path d="M107.803 32.188c-.66.596-2.248 1.776-3.1 2.362-.313.212-.494.55-.506.95-.016.434.166.84.484 1.09.7.55 2.146 1.714 3.04 2.48.57.49 1.55.4 2.01-.007.458-.407 2.54-1.84 3.11-2.194.33-.2.52-.55.534-.98.014-.47-.175-.876-.526-1.117-.557-.383-2.364-1.878-2.877-2.467-.24-.274-.604-.435-1.03-.46-.22-.01-.754 0-1.133.337zM89.91 38.93c-.118-.534-.302-1.816-.352-2.245.464-.26.81-.73.986-1.3 1.35-.15 4.306-.582 5.5-.77.325.445.923.774 1.542.866.2.64.356 2.01.382 2.5-.506.347-.89.9-1.09 1.318-3.055.33-5.13.6-5.683.688-.237-.558-.602-.864-1.286-1.053zM72.718 25.146c-.157-1.977-1.68-5.38-2.915-6.218-.257-.176-.65-.18-.385.096 1.167 1.214 2.27 4.386 2.617 5.79.073.297.712.695.683.332zm34.595-2.496c0-1 .703-1.867 1.63-1.867 1.018 0 1.518.82 1.518 1.823 0 1.62-.72 1.972-1.62 1.972-1.04 0-1.524-.96-1.524-1.93zm-9.803-.77c.84-.125 7.275.032 7.89.1.61.07.546.742.17.714-.893-.06-7.233-.478-7.866-.43-.59.044-.617-.32-.195-.385zm11.953-2.9c-.023.305-.98.366-.95-.075.057-.812.226-7.77.218-8.147-.01-.72.476-.747.516-.04.044.756.252 7.816.22 8.262zm2.937 2.925c.42-.095 7.104.158 7.864.15.41-.004.466.406.04.43-.892.048-6.913.018-7.738.172-.614.117-.752-.625-.166-.752zm-29.634 2.842c-.297.22-7.062 2.387-7.468 2.625-.31.18-.56-.455-.414-.552.23-.164 7.494-2.287 7.726-2.394.228-.114.425.12.156.32zm62.174.4c.152-1.978 1.852-5.107 2.63-6.08.193-.24.603-.215.39.095-1.04 1.492-1.993 4.248-2.338 5.65-.073.3-.713.697-.684.334zm-10.05-.4c.297.22 6.62 2.295 7.027 2.532.304.18.553-.46.413-.56-.233-.164-7.05-2.19-7.283-2.3-.234-.112-.43.12-.156.323zm-7.443 14.13c.116-.534.303-1.81.345-2.24-.46-.262-.805-.73-.978-1.3-1.354-.154-4.307-.587-5.5-.775-.326.45-.928.778-1.545.87-.206.632-.36 2.004-.386 2.494.506.35.892.9 1.09 1.32 3.053.33 5.128.6 5.682.687.235-.56.602-.866 1.286-1.057zm-18.727 4.92c17.02.136 25.795 2.195 25.784 3.48-.008.84-1.74 1.25-1.965 1.283-.356.06-.57-.486-.238-.61.448-.17.772-.348.772-.594 0-.93-8.136-2.554-24.362-2.677-13.707-.11-23.83 1.774-23.84 2.84-.004.22.16.213.567.33.237.07.226.54-.04.533-.823-.003-2.013-.357-2.01-.854.017-2.038 13.724-3.823 25.326-3.735z" fill="#31327f"/><path d="M108.38 32.766c.09-.084.512-.12.65.037.598.687 2.5 2.245 3.06 2.633.162.11.142.498.043.56-.588.36-2.72 1.82-3.25 2.294-.08.073-.452.13-.61-.004a116.66 116.66 0 0 0-3.075-2.51c-.144-.11-.17-.47-.023-.57.88-.605 2.5-1.805 3.204-2.44zM79.198 42.31c.1.084.305.093.574-.09 1.183-.87 3.047-2.37 4.063-2.97.138-.06.036-.597-.2-.613-.33-.025-3.128-.56-4.49-.78-.245-.023-.425.03-.467.218-.583 1.16-.473 2.99.52 4.235zm59.554-4.65c-.063-.128-.264-.155-.602-.117-1.576.183-4.16.87-4.49.95-.222.054-.307.638-.116.72 1.105.647 3.095 2.19 4.162 2.728.15.08.25.04.338-.023 1.02-.55 1.26-3.345.708-4.252zm-47.992.805c.306.1.435.21.588.456 1.14-.18 3.71-.46 4.96-.59a1.45 1.45 0 0 1 .51-.546c-.03-.577-.14-1.424-.288-1.9-.195-.05-.463-.16-.644-.394-1.358.21-3.654.556-4.977.7-.076.203-.177.357-.44.536.04.38.173 1.22.287 1.743zm35.582-.005c-.303.097-.433.21-.588.453-1.142-.176-3.707-.462-4.96-.594a1.41 1.41 0 0 0-.51-.548c.036-.578.136-1.43.29-1.907.196-.043.465-.162.64-.393 1.36.212 3.655.556 4.978.706.078.202.17.353.433.53a19.12 19.12 0 0 1-.283 1.746z" fill="#fff200"/><path d="M284.262 25.32c-.925-10.105-2.068-12.747-8.74-12.747h-2.992V42.89c0 2.7 1.21 3.16 2.764 3.16h4.938v2.008H259.43V46.05h4.94c1.55 0 2.76-.46 2.76-3.16V12.574h-2.99c-6.667 0-7.816 2.642-8.738 12.746h-1.897V10.393h32.65V25.32h-1.893zm21.554 22.738v-1.893h1.837c1.613 0 2.82-.46 2.82-3.157v-14.53c0-1.264-.346-4.535-3.966-4.535-5 0-8.278 5.34-8.278 10.795v8.27c0 2.698 1.2 3.157 2.813 3.157h1.84v1.893H287.94v-1.893h2.473c1.606 0 2.755-.52 2.755-3.157V15.443c0-2.697-1.208-3.156-2.814-3.156h-2.413v-1.893h10.29v16.13c1.498-2.867 4.66-5.278 9.26-5.278 4.77 0 7.64 3.332 8.048 6.374v15.388c0 2.698 1.147 3.157 2.756 3.157h2.475v1.893h-14.95zm28.167-24.518c-3.73 0-6.32 3.847-6.893 9.877h12.073c.456-4.02-1.093-9.876-5.18-9.876zm.29 25.036c-9.2 0-12.475-6.778-12.475-12.233 0-7.405 4.256-15.043 12.012-15.043 6.787 0 10.47 6.148 10.582 13.438l-.745.92h-16.674c0 6.946 2.763 10.795 8.05 10.795 5.634 0 7.7-4.597 7.643-8.153h2.072c.17 4.88-2.764 10.276-10.464 10.276zm-48.02 17.934c-1.547 0-2.7.458-2.7 3.16v20.037c0 5.11-2.47 13.265-13.34 13.265-9.022 0-13.046-5.63-13.62-10.105V69.67c0-2.702-1.152-3.16-2.7-3.16h-3.74V64.5h19.256v2.01h-4.65c-1.56 0-2.77.458-2.77 3.16v21.24c0 7.124 4.946 9.534 8.965 9.534 5.295 0 9.66-3.27 9.66-10.737V69.67c0-2.702-1.15-3.16-2.7-3.16h-4.423V64.5h16.497v2.01h-3.74zm19.43 35.66v-1.897h1.845c1.608 0 2.818-.46 2.818-3.216V82.76c0-1.263-.354-4.535-3.97-4.535-5.004 0-7.645 5.34-7.645 10.853v7.98c0 2.754 1.21 3.215 2.82 3.215h1.84v1.896h-14.95v-1.9h2.472c1.614 0 2.76-.46 2.76-3.217v-16.13c0-2.698-1.205-3.16-2.816-3.16h-2.472V75.87h9.948l.346 5.112c1.492-2.927 4.023-5.452 8.682-5.452 4.77 0 7.647 3.327 8.047 6.37v15.16c0 2.697 1.156 3.215 2.757 3.215h2.072v1.896h-14.548zm22.997-31.067c-1.723 0-3.16-1.55-3.16-3.5 0-1.957 1.437-3.506 3.16-3.506s3.163 1.55 3.163 3.506c0 1.95-1.44 3.5-3.163 3.5zm-6.787 31.066v-1.9h2.02c1.608 0 2.816-.46 2.816-3.16V80.92c0-2.697-1.21-3.16-2.82-3.16h-2.476v-1.894h10.347v21.246c0 2.698 1.2 3.16 2.82 3.16h2.47v1.895h-15.18zm41.795-24.41c-1.84 0-3.218 1.21-4.022 3.27l-8.51 21.136h-2.242L341.04 81.03c-.978-2.64-2.418-3.27-4.2-3.27h-1.837v-1.895h15.52v1.895h-2.24c-1.606 0-2.992.746-2.014 3.332l5.404 14.698 5.228-13.837c.81-2.07.81-4.193-1.727-4.193h-1.838v-1.895h11.21v1.895h-.865zm13.112-.345c-3.742 0-6.33 3.85-6.903 9.875h12.072c.46-4.02-1.09-9.874-5.17-9.874zm.285 25.554c-9.2 0-12.478-7.063-12.478-12.52 0-7.406 4.256-15.275 12.015-15.275 6.787 0 10.46 6.147 10.58 13.438l-.747.92H369.78c0 6.947 2.764 11.312 8.055 11.312 5.63 0 7.7-4.593 7.643-8.153h2.067c.174 4.88-2.76 10.278-10.46 10.278zm31.217-18.548c-1.844 0-2.817-1.552-2.817-2.87 0-2.126 1.203-3.5 2.872-4.136-4.314-.916-8.4 4.308-8.4 11.485v8.155c0 2.698 1.213 3.216 2.82 3.216h3.045v1.897h-16.15v-1.898h2.474c1.61 0 2.82-.575 2.82-3.217v-16.13c0-2.698-1.21-3.16-2.82-3.16h-2.473V75.87h9.89l.285 4.765c1.322-2.982 4.082-5.456 7.587-5.456 2.53 0 4.314 2.064 4.314 4.88 0 2.41-1.328 4.363-3.45 4.363zm17.303 18.548c-2.992 0-6.038-1.61-7.305-3.442l-1.44 3.042h-1.72V91.2h1.72c.518 4.136 3.453 9.475 8.516 9.475 2.297 0 4.71-1.264 4.71-3.847 0-6.145-15.064-4.594-15.064-13.496 0-4.533 3.222-8.155 8.45-8.155 2.473 0 5.006 1.037 6.615 2.814l1.664-2.404h1.33v10.05l-1.73-.002c-1.145-5.51-3.96-8.15-7.64-8.15-3.05 0-4.484 2.007-4.484 3.956 0 6.55 15.348 4.542 15.348 13.38 0 4.828-3.737 8.156-8.964 8.156zM444.57 71.1c-1.727 0-3.163-1.55-3.163-3.5 0-1.955 1.436-3.504 3.164-3.504 1.73 0 3.17 1.55 3.17 3.506 0 1.95-1.44 3.5-3.165 3.5zm-6.783 31.068v-1.898h2.01c1.61 0 2.818-.46 2.818-3.16V80.92c0-2.698-1.208-3.16-2.818-3.16h-2.472v-1.895h10.346V97.11c0 2.7 1.21 3.16 2.82 3.16h2.48v1.896h-15.18zm27.193.456c-2.475 0-6.04-1.66-6.608-5.224V78.28H454.4v-2.068c3.68-.748 6.267-2.87 6.61-11.715h2.36v11.367h7.817v2.414h-7.818v17.11c0 2.528 1.09 3.904 3.16 3.904 2.3 0 3.57-1.78 3.57-4.077V87.29h2.293v8.845c0 3.102-2.533 6.488-7.416 6.488zm36.152-24.863c-1.837 0-3.155 1.15-4.02 3.22l-9.89 23.885c-2.812 6.83-4.824 10.68-9.54 10.68-2.472 0-4.486-2.005-4.486-4.703 0-2.07 1.096-4.254 3.393-4.254 1.262 0 2.523 1.378 2.523 3.102 0 1.316-.57 2.64-1.724 3.504 3.164 1.027 6.783-4.37 8.57-11.89l-7.134-20.324c-.918-2.644-2.47-3.218-4.255-3.218h-1.263v-1.895h14.89v1.895h-2.18c-1.61 0-2.933.692-2.017 3.27l5.01 14.303 5.34-13.38c.807-2.07.807-4.192-1.724-4.192H490.5V75.87H502v1.894h-.868zM270.536 120.45c-8.11 0-10.92 8.554-10.92 17.625 0 13.55 6.32 16.594 11.093 16.594 6.314 0 10.34-6.77 10.34-16.192 0-7.23-2.01-18.026-10.52-18.026zm-.4 36.75c-10.52 0-16.328-10.107-16.328-19.07 0-10.906 6.896-20.205 16.383-20.205 12.13 0 16.68 12.46 16.68 19.524 0 12.514-7.53 19.752-16.73 19.752zm35.004-30.893c-1.146 0-2.472-.804-2.472-2.47 0-1.32.864-2.415 2.472-3.098-.344-.462-1.146-.69-1.608-.69-2.7 0-4.255 2.066-4.255 5.282 0 2.235.517 5.05 1.035 7.003h6.437v2.416h-6.21v16.59c0 2.696 1.205 3.16 2.82 3.16h3.046v1.893H290.19v-1.89h2.475c1.61 0 2.817-.463 2.817-3.16v-16.59h-5v-2.415h4.828c-.4-1.668-.745-4.25-.745-5.34 0-4.882 3.217-9.072 8.564-9.072 3.51 0 5.4 2.697 5.4 4.418 0 2.877-2.125 3.967-3.39 3.967zm-33.152 85.2c-5.007 0-9.145-2.58-10.7-5.166l-2.354 4.364h-1.546v-16.71h1.89c.924 7.58 4.484 15.213 12.302 15.213 4.314 0 7.42-2.408 7.42-6.54 0-12.522-22.194-4.658-22.194-20.043 0-4.65 3.682-10.397 11.097-10.397 4.94 0 7.7 1.726 9.887 4.137l1.728-4.137h1.49v15.91h-1.954c-.746-7.864-3.97-13.613-10.52-13.613-6.264 0-7.763 4.537-7.763 6.603 0 11.602 22.598 4.713 22.598 18.952 0 7.636-5.802 11.423-11.376 11.423zm30.922-.8v-1.896h1.842c1.606 0 2.82-.465 2.82-3.16v-14.3c0-1.265-.346-4.54-3.97-4.54-5 0-7.646 5.34-7.646 10.8v8.035c0 2.697 1.208 3.16 2.82 3.16h1.835v1.896H285.67v-1.894h2.474c1.61 0 2.76-.52 2.76-3.16V176.19c0-2.696-1.21-3.16-2.816-3.16h-2.418v-1.893h10.292V189.4c1.5-2.87 4.027-5.286 8.623-5.286 4.77 0 7.64 3.333 8.047 6.376v15.156c0 2.697 1.154 3.16 2.76 3.16h2.472v1.896h-14.95zm28.46-24.752c-3.738 0-6.33 3.85-6.9 9.88h12.073c.455-4.023-1.093-9.88-5.174-9.88zm.28 25.554c-9.19 0-12.465-7.06-12.465-12.514 0-7.41 4.247-15.275 12.012-15.275 6.78 0 10.464 6.143 10.573 13.432l-.745.92h-16.67c0 6.95 2.76 11.31 8.047 11.31 5.635 0 7.704-4.59 7.645-8.15h2.07c.172 4.88-2.757 10.274-10.466 10.274zm28.632-32.96c-1.15 0-2.47-.803-2.47-2.465 0-1.316.86-2.41 2.47-3.1-.346-.517-1.555-1.03-2.874-1.03-3.278 0-4.945 2.75-4.945 5.448 0 2.244.636 5.057 1.036 7.008h5.804v2.41h-5.637v18.834c0 2.696 1.21 3.16 2.82 3.16h2.472v1.895h-15.066v-1.897h1.895c1.613 0 2.82-.464 2.82-3.16v-18.84h-4.426v-2.41h4.31c-.4-1.66-.746-4.245-.746-5.34 0-4.877 3.907-9.24 9.256-9.24 3.674 0 6.67 2.466 6.67 4.77 0 2.695-1.787 3.955-3.396 3.955z" fill="#31327f"/><path d="M378.448 210.706v-1.897h2.244c1.61 0 2.82-.467 2.82-3.16V189.51c0-2.702-1.21-3.155-2.82-3.155h-2.472V184.4h10.347v21.245c0 2.696 1.204 3.16 2.818 3.16h1.892v1.895h-14.83zm5.29-30.548c-1.84 0-3.163-1.435-3.163-3.215 0-1.262.745-2.7 1.954-3.387-1.09-1.326-2.76-1.78-4.487-1.78-6.036 0-8.796 4.993-7.302 12.63h5.636v2.408h-5.406v18.835c0 2.693 1.21 3.16 2.818 3.16h2.76v1.892H361.2v-1.897h1.9c1.61 0 2.82-.463 2.82-3.16V186.81h-4.43v-2.41h4.312c-1.376-6.943 2.24-14.752 12.245-14.752 4.946 0 9.31 3.097 9.31 6.14 0 2.815-1.492 4.367-3.618 4.367zm23.452 5.795c-3.732 0-6.322 3.85-6.896 9.88h12.075c.45-4.024-1.1-9.88-5.18-9.88zm.287 25.553c-9.2 0-12.473-7.06-12.473-12.514 0-7.41 4.254-15.275 12.015-15.275 6.78 0 10.46 6.143 10.574 13.432l-.746.92h-16.67c0 6.95 2.76 11.31 8.046 11.31 5.632 0 7.7-4.59 7.642-8.15h2.07c.17 4.88-2.76 10.272-10.465 10.272zm11.903-.8v-1.897h2.47c1.607 0 2.815-.467 2.815-3.16v-29.46c0-2.698-1.208-3.16-2.814-3.16h-2.47v-1.895h10.35v34.51c0 2.64 1.208 3.16 2.82 3.16h2.467v1.895H419.38zm30.92-24.576c-3.962 0-6.954 4.998-6.954 11.02 0 8.045 2.992 11.605 6.673 11.605 4.592 0 6.95-3.965 6.95-10.685 0-5.454-1.67-11.94-6.673-11.94zm10.18 24.576c-1.896 0-3.333-1.897-3.388-3.85-1.322 2.244-3.796 4.367-7.532 4.367-6.96 0-11.556-6.088-11.556-13.44 0-5.284 3.968-14.01 12.297-14.01 2.42 0 4.72 1.206 6.278 3.387v-10.967c0-2.696-1.21-3.16-2.818-3.16h-5.52v-1.893h13.39v34.4c0 2.75 1.156 3.27 2.764 3.27h2.47v1.896h-6.38zm13.452.574c-2.01 0-3.62-1.667-3.62-3.678 0-2.007 1.61-3.674 3.62-3.674s3.623 1.667 3.623 3.674c0 2.01-1.614 3.678-3.623 3.678zm-323.97-88.99c-.305-9.04-3.507-46.52-3.685-60.027-.01-.98-.157-1.004-.908-.912-.43.06-1.236.14-2.36.25 0 0 .05-1.18 0-1.55-.057-.378-.057-.433-.54-.378-.388.047-1.177.086-2.12.158 0-1.05.006-2.07.03-3.056-1.913.61-5.554.85-7.234.85-6.728 0-10.512-2.09-15.782-2.09-2.33 0-4.817.272-7.322 1.206-.747.282-1.214.093-1.725-.14-.516-.232-2.61-1.067-5.82-1.067-5.205 0-12.35 2.303-18.425 2.303-3.348 0-6.078-.857-7.49-1.636a175.92 175.92 0 0 1-.107 2.51c-.78-.07-1.697-.153-1.995-.153-.456 0-.47-.004-.47.534 0 .47-.043.897-.08 1.56-.405 0-1.977-.12-2.375-.187-.52-.086-.607-.03-.607.872 0 .67-4.462 60.8-4.462 62.083 0 1.678.143 2.195 1.984 1.607 3.49-1.114 20.43-6.33 33.825-4.768-1.146 4.367 14.284 4.422 13.666.11 12.22-1.71 31.076 3.912 32.42 4.123 1.337.212 1.632-.43 1.58-2.195z" fill="#31327f"/><path d="M106.992 118.668c-1.76-.742-4.498-1.49-11.59-1.49-11.517 0-19.56 3.638-25.393 2.82-.37-.053-.56-.108-.54-.535.933-18.022 3.193-43.678 4.406-57.738-.39 0-1.34-.102-1.55-.102-.22 0-.36 0-.36.246s-4.377 60.17-4.413 60.803c-.033.64.13.923.627.814.5-.11 14.233-4.58 27.04-4.58 2.554 0 7.697.39 8.02.43.316.032.175.205.14.455-.476 3.338 12.197 2.8 11.494.323-.073-.254-.144-.607.28-.677a46.03 46.03 0 0 1 6.92-.534c10.025 0 25 3.48 25.565 3.63.57.136.64-.357.64-.815 0-.463-3.27-58.44-3.27-58.793 0-.357.14-.573-.182-.533-.318.034-1.107.04-1.424.04-.19 10.87 2.986 56.552 2.986 56.907 0 .358-.108.37-.39.427-.83.172-2.19.275-3.67.275-4.996 0-13.83-2.8-21.925-2.8-3.65 0-7.61 1.012-9.16 1.624-1.635.64-2.583.51-4.26-.205z" fill="#fff200"/><path d="M108.374 58.938c.005-.285-.166-.594-.376-.77-.686-.56-2.358-1.598-4.986-1.598-6.43 0-12.618 2.758-19.04 2.758-2.423 0-4.163-.413-5.97-.797-.19 3.23-3.306 51.42-3.793 56.946 5.29.988 10.903-2.705 22.37-2.705 6.82 0 11.32 2.218 12.044 2.607.654.338.9.338 1.672-.067 1.947-1.02 6.706-2.436 12.157-2.436 7.665 0 14.828 3.686 19.187 2.57.413-18.43-3.033-41.6-2.983-56.712-.92.124-3.85.405-5.172.405-6.662 0-10.706-2.518-16.573-2.518-3.464 0-5.744 1.23-6.504 1.784-.256.19-.28.265-.288.648-.12 11.698-.112 43.478-.582 54.503-.027.675-1.057.502-1.057.023.39-12.47-.21-44.066-.106-54.64z" fill="#fff"/><path d="M142.03 61.13c-.01-.216-.11-.32-.323-.284-.146.023-.787.026-1.35.04.132 17.765 3.202 42.917 2.665 56.256-5 .95-12.116-2.435-20.99-2.435-8.05 0-11.587 1.633-11.95 1.81-.365.183-.884.136-1.366-.06-1.89-.778-6.287-1.8-12.27-1.8-12.91 0-16.598 2.85-23.498 2.41.95-15.762 2.84-44.504 3.48-57.326-.333-.03-.65-.07-.864-.07-.427 0-.4.075-.427.39-1.395 15.83-3.115 40.3-4.344 58.258-.028.424-.07.424.213.464 7.138.89 13.167-2.67 24.29-2.67 5.825 0 9.673.68 12.713 1.925 1.12.454 1.85.434 3.05-.11 2.713-1.24 6.073-1.667 9.203-1.667 10.548 0 19.003 3.634 24.723 2.772.292-.046.285-.245.285-.496 0-.246-2.97-48.487-3.246-57.405z" fill="#fff"/><path d="M81.818 78.827c-.507 0-.96.582-1.395 1.367-.073 3.267-.253 8.586-.53 12.484 1.217.276 1.142.81 1.446.835.22 0 .33-.025.502-.152 1.29-.984 1.978-3.57 2.025-5.19.153-5.67-1.19-9.34-2.053-9.34zm-.53 15.726c-.66-.028-1.014-.433-1.418-.458-.407-.025-1.043.077-1.22.406-.153.51-.506.357-.506-.1 0-.454.33-14.152.306-14.61-.052-1.14-.153-1.412-1.165-1.112-.18.053-.33-.457.047-.606.206-.103 2.714-.94 2.942-.94.178 0 .202.154.202.38 0 .284 0 .76-.024 1.395.43-.635.936-1.14 1.62-1.697.28-.23.51-.406.863-.202 1.27.76 2.99 3.367 2.838 8.96-.047 1.824-2.56 8.69-4.484 8.59z" fill="#ed1c24"/><path d="M88.51 81.106c-.253.632-.76.33-.785.078-.023-.228-.352-1.194-.43-1.422-.1-.3-.406-.658-.533-.658-.13 0-.302-.147-.05-.354.126-.1 1.596-.66 2.028-.76.15-.05.28.1.227.255-.023.153-.352 2.56-.457 2.86zm-.048 12.635c-.1.51-.788.38-.788-.07 0-.458-.225-7.626-.3-8.08-.13-.834-.612-.962-1.218-1.064-.203-.024-.306-.43.05-.606.203-.106 2.738-1.065 2.964-1.065.18 0 .205.153.205.377.023 1.395-.33 7.8-.913 10.51zm4.056-.15c-1.295 0-2.36-.832-2.66-1.24-.13-.15-.254-.25-.078-.35.177-.103.86-1.27.99-1.423.1-.15.176 0 .223.128.33.934.966 2.027 1.855 2.027.557 0 1.265-.886 1.265-1.852 0-1.287-3.826-1.264-3.826-4.63 0-.967.302-2.33 2.33-3.67.278-.208.382-.23.484-.106.05.08 1.19 1.02 1.858 1.447.223.153.33.124.253.276-.13.28-.46.61-.713.837-.153.13-.48.13-.61.074-.48-.23-1.266-.912-1.542-1.316-.054-.08-.106-.1-.154-.05-.506.43-.582.936-.582 1.596 0 1.746 3.697 1.922 3.697 4.178 0 1.574-1.036 4.08-2.785 4.08zm6.314-.024c-2.03 0-2.966-2.38-2.966-4.89 0-2.25 1.796-4.35 2.838-5.467.253-.277.43-.353.53-.228.05.075 1.094 1.315 1.676 1.773.072.076.63-.028.48.276-.126.28-.556.758-.836.987-.226.18-.686.23-.862.077-.507-.406-.787-.783-1.118-1.34-.05-.08-.123-.102-.152-.054-.554.733-.807 1.746-.807 2.685 0 3.316.96 4.71 2.202 4.71.71 0 1.04-.636 1.447-1.218.153-.23.277.025.176.23-.736 1.44-1.14 2.455-2.608 2.455zm5.445-9.193c-.153-.12-.252-.046-.305.055-.507.857-.73 2-.73 3.038 0 .56.024 1.064.076 1.518.76-.63 2.103-2 2.103-2.91 0-.58-.63-1.293-1.14-1.7zm.277 9.194c-2.025 0-2.96-2.38-2.96-4.89 0-2.25 1.395-4.35 2.43-5.467.253-.277.764-.277.914-.228.51.177 2.407 1.772 2.407 3.036 0 .482-2.79 2.838-3.926 3.597.324 1.77 1.11 2.56 2.05 2.56.99 0 1.593-.483 2.052-1.143.148-.228.3.055.2.23-.81 1.495-1.696 2.303-3.172 2.303z" fill="#31327f"/><path d="M115.102 78.52c-.48 0-.864.56-1.193 1.242 0 3.115-.05 8.535-.23 12.587 1.214.194 1.214.91 1.52.91.23 0 .304-.03.48-.18 1.373-1.14 1.85-3.82 1.85-5.85 0-6.608-1.443-8.713-2.43-8.713zm.05 15.828c-.66 0-1.037-.406-1.444-.406-.406 0-.966-.025-1.19.23-.076.227-.512.48-.512-.077 0-.454-.07-13.927-.1-14.38-.047-.94-.353-1.217-1.19-1.064-.203.028-.405-.3-.05-.48.205-.1 2.51-1.09 2.736-1.09.406 0 .482.206.482.43v1.09c.407-.604.888-1.11 1.573-1.692.276-.256.51-.38.86-.18 1.876 1.04 3.195 3.55 3.195 9.394 0 2.487-2.432 8.23-4.36 8.23z" fill="#ed1c24"/><path d="M122.832 84.248c-.708 0-1.14 1.186-1.14 2.175 0 3.444 1.47 5.648 2.156 5.648.938 0 1.343-1.04 1.343-2.123 0-3.014-1.39-5.695-2.354-5.695zm.227 9.315c-1.62 0-2.86-2.532-2.86-5.117 0-2.706 2.05-5.516 3.57-5.516 1.775 0 2.94 2.758 2.94 5.09 0 2.226-2.03 5.543-3.655 5.543zm7.453 0c-1.877 0-2.966-2.66-2.966-4.89 0-2.25 1.39-4.402 2.71-5.49.508-.407.556-.434.863-.1.05.075.86 1.212 1.444 1.67.076.076.534.123.38.43-.128.276-.48.658-.76.887-.226.177-.656.2-.862.077-.53-.306-.86-1.118-1.213-1.624-.055-.076-.108-.076-.154-.05-.585.433-.84 1.292-.84 2.332 0 3.314 1.14 5.266 2.38 5.266.71 0 1.17-.502 1.55-1.06.18-.252.35.1.226.3-.71 1.12-1.293 2.257-2.76 2.257zm5.882-9.063c-.154-.13-.254-.076-.33 0-.713.63-.99 1.923-.99 2.962 0 .505.054.96.1 1.366.913-.43 2.256-1.317 2.256-2.102 0-.96-.352-1.674-1.035-2.227zm.277 9.063c-1.872 0-3.245-2.226-3.245-4.507 0-2.457 1.342-4.71 2.89-6 .276-.23.633-.126.783-.077.967.324 2.463 2.38 2.463 3.72 0 .48-3.045 2.124-4.287 2.68.405 1.748 1.394 2.636 2.33 2.636.917 0 1.6-.483 2.03-1.143.152-.23.33.177.202.357-.913 1.314-1.697 2.33-3.168 2.33z" fill="#31327f"/></svg>